# Blender 5.1.1
# www.blender.org
mtllib bow.mtl
o 球
v -0.208583 0.487158 0.000000
v -0.208583 -0.487158 0.000000
v -0.115369 0.477798 -0.018541
v -0.025738 0.450076 -0.036370
v 0.056867 0.405057 -0.052801
v 0.129271 0.344473 -0.067203
v 0.188691 0.270651 -0.079023
v 0.232845 0.186427 -0.087805
v 0.260034 0.095040 -0.093214
v 0.269215 0.000000 -0.095040
v 0.260034 -0.095040 -0.093214
v 0.232845 -0.186427 -0.087805
v 0.188691 -0.270651 -0.079023
v 0.129271 -0.344473 -0.067203
v 0.056867 -0.405057 -0.052801
v -0.025738 -0.450076 -0.036370
v -0.115369 -0.477798 -0.018541
v -0.113543 0.477798 0.000000
v -0.022155 0.450076 0.000000
v 0.062068 0.405057 0.000000
v 0.135890 0.344473 -0.000000
v 0.196474 0.270651 0.000000
v 0.241493 0.186427 -0.000000
v 0.269215 0.095040 0.000000
v 0.278575 0.000000 0.000000
v 0.269215 -0.095040 0.000000
v 0.241493 -0.186427 -0.000000
v 0.196474 -0.270651 0.000000
v 0.135890 -0.344473 -0.000000
v 0.062068 -0.405057 0.000000
v -0.022155 -0.450076 0.000000
v -0.113543 -0.477798 0.000000
v -0.115369 0.477798 0.018541
v -0.025738 0.450076 0.036370
v 0.056867 0.405057 0.052801
v 0.129271 0.344473 0.067203
v 0.188691 0.270651 0.079023
v 0.232845 0.186427 0.087805
v 0.260034 0.095040 0.093214
v 0.269215 0.000000 0.095040
v 0.260034 -0.095040 0.093214
v 0.232845 -0.186427 0.087805
v 0.188691 -0.270651 0.079023
v 0.129271 -0.344473 0.067203
v 0.056867 -0.405057 0.052801
v -0.025738 -0.450076 0.036370
v -0.115369 -0.477798 0.018541
v -0.147779 -0.481045 0.005694
v -0.147780 0.481086 0.005694
v -0.147779 -0.481045 -0.004337
v -0.147780 0.481086 -0.004337
v -0.157747 -0.482059 0.005694
v -0.157747 0.482103 0.005694
v -0.157747 -0.482059 -0.004337
v -0.157747 0.482103 -0.004337
vn 0.9904 0.0975 -0.0975
vn 0.0980 0.9951 -0.0097
vn 0.0980 -0.9951 -0.0097
vn 0.9904 -0.0975 -0.0975
vn 0.2902 0.9565 -0.0286
vn 0.9527 -0.2890 -0.0938
vn 0.4709 0.8810 -0.0464
vn 0.8786 -0.4696 -0.0865
vn 0.6332 0.7715 -0.0624
vn 0.7708 -0.6326 -0.0759
vn 0.7708 0.6326 -0.0759
vn 0.6332 -0.7715 -0.0624
vn 0.8786 0.4696 -0.0865
vn 0.4709 -0.8810 -0.0464
vn 0.9527 0.2890 -0.0938
vn 0.2902 -0.9565 -0.0286
vn 0.7708 -0.6326 0.0759
vn 0.7708 0.6326 0.0759
vn 0.6332 -0.7715 0.0624
vn 0.8786 0.4696 0.0865
vn 0.4709 -0.8810 0.0464
vn 0.9527 0.2890 0.0938
vn 0.2902 -0.9565 0.0286
vn 0.9904 0.0975 0.0976
vn 0.0980 0.9951 0.0097
vn 0.0980 -0.9951 0.0097
vn 0.9904 -0.0975 0.0976
vn 0.2902 0.9565 0.0286
vn 0.9527 -0.2890 0.0938
vn 0.4709 0.8810 0.0464
vn 0.8786 -0.4696 0.0865
vn 0.6332 0.7715 0.0624
vn -1.0000 -0.0000 -0.0000
vn -0.0000 -0.0000 1.0000
vn 1.0000 -0.0000 -0.0000
vn -0.0000 -0.0000 -1.0000
vn -0.1012 0.9949 -0.0000
vn -0.1016 -0.9948 -0.0000
vt 0.125147 0.498979
vt 0.063634 0.562060
vt 0.062336 0.500102
vt 0.082655 0.937813
vt 0.071519 0.999921
vt 0.070380 0.936859
vt 0.053608 0.000079
vt 0.066987 0.061865
vt 0.054738 0.063260
vt 0.061419 0.438138
vt 0.122738 0.435826
vt 0.069245 0.873929
vt 0.093305 0.875650
vt 0.060464 0.376097
vt 0.118035 0.372966
vt 0.068119 0.811176
vt 0.103003 0.813334
vt 0.111232 0.310221
vt 0.059102 0.313934
vt 0.067072 0.748619
vt 0.111319 0.750832
vt 0.058171 0.251574
vt 0.102324 0.247775
vt 0.117988 0.688112
vt 0.065762 0.686267
vt 0.091776 0.185578
vt 0.056926 0.189016
vt 0.064898 0.624095
vt 0.122544 0.625166
vt 0.079830 0.123659
vt 0.055873 0.126248
vt 0.124997 0.562178
vt 0.013711 0.249333
vt 0.022706 0.752458
vt 0.013867 0.689961
vt 0.022102 0.186828
vt 0.006927 0.627223
vt 0.031805 0.124519
vt 0.002332 0.564211
vt 0.042447 0.062303
vt 0.000079 0.501215
vt 0.058161 0.938254
vt 0.000079 0.438179
vt 0.045289 0.876531
vt 0.002419 0.375044
vt 0.033343 0.814639
vt 0.007112 0.312098
vt 0.375306 0.000079
vt 0.250305 0.125079
vt 0.250305 0.000079
vt 0.375306 0.125079
vt 0.250305 0.250079
vt 0.375306 0.250079
vt 0.250305 0.375080
vt 0.375306 0.500080
vt 0.250305 0.500080
vt 0.125305 0.375080
vt 0.125305 0.250079
vt 0.500306 0.250079
vt 0.375306 0.375080
vt 0.500306 0.375080
s 0
usemtl マテリアル
f 10/1/1 24/2/1 25/3/1
f 3/4/2 1/5/2 18/6/2
f 2/7/3 17/8/3 32/9/3
f 10/1/4 26/10/4 11/11/4
f 3/4/5 19/12/5 4/13/5
f 11/11/6 27/14/6 12/15/6
f 4/13/7 20/16/7 5/17/7
f 13/18/8 27/14/8 28/19/8
f 5/17/9 21/20/9 6/21/9
f 13/18/10 29/22/10 14/23/10
f 7/24/11 21/20/11 22/25/11
f 15/26/12 29/22/12 30/27/12
f 7/24/13 23/28/13 8/29/13
f 16/30/14 30/27/14 31/31/14
f 9/32/15 23/28/15 24/2/15
f 16/30/16 32/9/16 17/8/16
f 28/19/17 44/33/17 29/22/17
f 22/25/18 36/34/18 37/35/18
f 30/27/19 44/33/19 45/36/19
f 22/25/20 38/37/20 23/28/20
f 30/27/21 46/38/21 31/31/21
f 24/2/22 38/37/22 39/39/22
f 31/31/23 47/40/23 32/9/23
f 25/3/24 39/39/24 40/41/24
f 18/6/25 1/5/25 33/42/25
f 2/7/26 32/9/26 47/40/26
f 25/3/27 41/43/27 26/10/27
f 19/12/28 33/42/28 34/44/28
f 26/10/29 42/45/29 27/14/29
f 20/16/30 34/44/30 35/46/30
f 28/19/31 42/45/31 43/47/31
f 20/16/32 36/34/32 21/20/32
f 49/48/33 50/49/33 48/50/33
f 51/51/34 54/52/34 50/49/34
f 55/53/35 52/54/35 54/52/35
f 52/54/36 49/55/36 48/56/36
f 54/52/37 48/57/37 50/58/37
f 51/59/38 53/60/38 55/53/38
f 10/1/1 9/32/1 24/2/1
f 10/1/4 25/3/4 26/10/4
f 3/4/5 18/6/5 19/12/5
f 11/11/6 26/10/6 27/14/6
f 4/13/7 19/12/7 20/16/7
f 13/18/8 12/15/8 27/14/8
f 5/17/9 20/16/9 21/20/9
f 13/18/10 28/19/10 29/22/10
f 7/24/11 6/21/11 21/20/11
f 15/26/12 14/23/12 29/22/12
f 7/24/13 22/25/13 23/28/13
f 16/30/14 15/26/14 30/27/14
f 9/32/15 8/29/15 23/28/15
f 16/30/16 31/31/16 32/9/16
f 28/19/17 43/47/17 44/33/17
f 22/25/18 21/20/18 36/34/18
f 30/27/19 29/22/19 44/33/19
f 22/25/20 37/35/20 38/37/20
f 30/27/21 45/36/21 46/38/21
f 24/2/22 23/28/22 38/37/22
f 31/31/23 46/38/23 47/40/23
f 25/3/24 24/2/24 39/39/24
f 25/3/27 40/41/27 41/43/27
f 19/12/28 18/6/28 33/42/28
f 26/10/29 41/43/29 42/45/29
f 20/16/30 19/12/30 34/44/30
f 28/19/31 27/14/31 42/45/31
f 20/16/32 35/46/32 36/34/32
f 49/48/33 51/51/33 50/49/33
f 51/51/34 55/53/34 54/52/34
f 55/53/35 53/60/35 52/54/35
f 52/54/36 53/60/36 49/55/36
f 54/52/37 52/54/37 48/57/37
f 51/59/38 49/61/38 53/60/38
