# Blender 5.1.1
# www.blender.org
mtllib arrow.mtl
o Cube
v 0.350224 0.018151 -0.018151
v 0.350224 -0.018151 -0.018151
v 0.350224 0.018151 0.018151
v 0.350224 -0.018151 0.018151
v -0.350224 0.018151 -0.018151
v -0.350224 -0.018151 -0.018151
v -0.350224 0.018151 0.018151
v -0.350224 -0.018151 0.018151
vn -0.0000 1.0000 -0.0000
vn -0.0000 -0.0000 1.0000
vn -1.0000 -0.0000 -0.0000
vn -0.0000 -1.0000 -0.0000
vn 1.0000 -0.0000 -0.0000
vn -0.0000 -0.0000 -1.0000
vt 0.518845 0.348176
vt 0.348176 0.518845
vt 0.348176 0.348176
vt 0.177507 0.689514
vt 0.177507 0.518845
vt 0.348176 0.006839
vt 0.177507 0.177507
vt 0.177507 0.006839
vt 0.177507 0.348176
vt 0.006839 0.518845
vt 0.006839 0.348176
vt 0.348176 0.177507
vt 0.518845 0.518845
vt 0.348176 0.689514
s 0
usemtl Material
f 5/1/1 3/2/1 1/3/1
f 3/2/2 8/4/2 4/5/2
f 7/6/3 6/7/3 8/8/3
f 2/9/4 8/10/4 6/11/4
f 1/3/5 4/5/5 2/9/5
f 5/12/6 2/9/6 6/7/6
f 5/1/1 7/13/1 3/2/1
f 3/2/2 7/14/2 8/4/2
f 7/6/3 5/12/3 6/7/3
f 2/9/4 4/5/4 8/10/4
f 1/3/5 3/2/5 4/5/5
f 5/12/6 1/3/6 2/9/6
o 円錐
v 0.343190 0.000000 -0.039311
v 0.343190 -0.007669 -0.038555
v 0.343190 -0.015044 -0.036318
v 0.343190 -0.021840 -0.032686
v 0.343190 -0.027797 -0.027797
v 0.343190 -0.032686 -0.021840
v 0.343190 -0.036318 -0.015044
v 0.343190 -0.038555 -0.007669
v 0.343190 -0.039311 -0.000000
v 0.343190 -0.038555 0.007669
v 0.343190 -0.036318 0.015044
v 0.343190 -0.032686 0.021840
v 0.343190 -0.027797 0.027797
v 0.343190 -0.021840 0.032686
v 0.343190 -0.015044 0.036318
v 0.343190 -0.007669 0.038555
v 0.343190 0.000000 0.039311
v 0.343190 0.007669 0.038555
v 0.343190 0.015044 0.036318
v 0.343190 0.021840 0.032686
v 0.343190 0.027797 0.027797
v 0.343190 0.032686 0.021840
v 0.343190 0.036318 0.015044
v 0.343190 0.038555 0.007669
v 0.343190 0.039311 -0.000000
v 0.343190 0.038555 -0.007669
v 0.343190 0.036318 -0.015044
v 0.343190 0.032686 -0.021840
v 0.343190 0.027797 -0.027797
v 0.343190 0.021840 -0.032686
v 0.343190 0.015044 -0.036318
v 0.343190 0.007669 -0.038555
v 0.421811 0.000000 -0.000000
vn 0.4455 -0.0878 -0.8910
vn 0.4455 -0.2599 -0.8567
vn 0.4455 -0.4220 -0.7896
vn 0.4455 -0.5680 -0.6921
vn 0.4455 -0.6921 -0.5680
vn 0.4455 -0.7896 -0.4220
vn 0.4455 -0.8567 -0.2599
vn 0.4455 -0.8910 -0.0878
vn 0.4455 -0.8910 0.0878
vn 0.4455 -0.8567 0.2599
vn 0.4455 -0.7896 0.4220
vn 0.4455 -0.6921 0.5680
vn 0.4455 -0.5680 0.6921
vn 0.4455 -0.4220 0.7896
vn 0.4455 -0.2599 0.8567
vn 0.4455 -0.0878 0.8910
vn 0.4455 0.0878 0.8910
vn 0.4455 0.2599 0.8567
vn 0.4455 0.4220 0.7896
vn 0.4455 0.5680 0.6921
vn 0.4455 0.6921 0.5680
vn 0.4455 0.7896 0.4220
vn 0.4455 0.8567 0.2599
vn 0.4455 0.8910 0.0878
vn 0.4455 0.8910 -0.0878
vn 0.4455 0.8567 -0.2599
vn 0.4455 0.7896 -0.4220
vn 0.4455 0.6921 -0.5680
vn 0.4455 0.5680 -0.6921
vn 0.4455 0.4220 -0.7896
vn -1.0000 -0.0000 -0.0000
vn 0.4455 0.2599 -0.8567
vn 0.4455 0.0878 -0.8910
vt 0.671607 0.703907
vt 0.603427 0.724589
vt 0.666262 0.691003
vt 0.658503 0.679390
vt 0.648626 0.669513
vt 0.637013 0.661754
vt 0.624109 0.656409
vt 0.610411 0.653684
vt 0.596444 0.653684
vt 0.582745 0.656409
vt 0.569841 0.661754
vt 0.558228 0.669513
vt 0.548352 0.679389
vt 0.540592 0.691003
vt 0.535247 0.703906
vt 0.532522 0.717605
vt 0.532522 0.731572
vt 0.535247 0.745271
vt 0.540592 0.758175
vt 0.548352 0.769788
vt 0.558228 0.779664
vt 0.569841 0.787424
vt 0.582745 0.792769
vt 0.596444 0.795494
vt 0.610411 0.795494
vt 0.624109 0.792769
vt 0.637013 0.787424
vt 0.648626 0.779664
vt 0.658503 0.769788
vt 0.666262 0.758175
vt 0.671607 0.745271
vt 0.674332 0.731572
vt 0.749139 0.655503
vt 0.689828 0.687205
vt 0.721530 0.746516
vt 0.674332 0.717605
vt 0.730673 0.748335
vt 0.739996 0.748335
vt 0.749139 0.746516
vt 0.757752 0.742948
vt 0.765503 0.737769
vt 0.772095 0.731178
vt 0.777274 0.723426
vt 0.780841 0.714814
vt 0.782660 0.705670
vt 0.782660 0.696348
vt 0.780841 0.687205
vt 0.777274 0.678592
vt 0.772095 0.670841
vt 0.765503 0.664249
vt 0.757752 0.659070
vt 0.739996 0.653684
vt 0.730674 0.653684
vt 0.721530 0.655502
vt 0.712918 0.659070
vt 0.705167 0.664249
vt 0.698575 0.670841
vt 0.693396 0.678592
vt 0.688009 0.696348
vt 0.688009 0.705670
vt 0.689828 0.714813
vt 0.693395 0.723426
vt 0.698575 0.731177
vt 0.705166 0.737769
vt 0.712918 0.742948
s 0
usemtl Material
f 9/15/7 41/16/7 10/17/7
f 10/17/8 41/16/8 11/18/8
f 11/18/9 41/16/9 12/19/9
f 12/19/10 41/16/10 13/20/10
f 13/20/11 41/16/11 14/21/11
f 14/21/12 41/16/12 15/22/12
f 15/22/13 41/16/13 16/23/13
f 16/23/14 41/16/14 17/24/14
f 17/24/15 41/16/15 18/25/15
f 18/25/16 41/16/16 19/26/16
f 19/26/17 41/16/17 20/27/17
f 20/27/18 41/16/18 21/28/18
f 21/28/19 41/16/19 22/29/19
f 22/29/20 41/16/20 23/30/20
f 23/30/21 41/16/21 24/31/21
f 24/31/22 41/16/22 25/32/22
f 25/32/23 41/16/23 26/33/23
f 26/33/24 41/16/24 27/34/24
f 27/34/25 41/16/25 28/35/25
f 28/35/26 41/16/26 29/36/26
f 29/36/27 41/16/27 30/37/27
f 30/37/28 41/16/28 31/38/28
f 31/38/29 41/16/29 32/39/29
f 32/39/30 41/16/30 33/40/30
f 33/40/31 41/16/31 34/41/31
f 34/41/32 41/16/32 35/42/32
f 35/42/33 41/16/33 36/43/33
f 36/43/34 41/16/34 37/44/34
f 37/44/35 41/16/35 38/45/35
f 38/45/36 41/16/36 39/46/36
f 24/47/37 32/48/37 40/49/37
f 39/46/38 41/16/38 40/50/38
f 40/50/39 41/16/39 9/15/39
f 40/49/37 9/51/37 10/52/37
f 10/52/37 11/53/37 12/54/37
f 12/54/37 13/55/37 14/56/37
f 14/56/37 15/57/37 16/58/37
f 16/58/37 17/59/37 18/60/37
f 18/60/37 19/61/37 20/62/37
f 20/62/37 21/63/37 24/47/37
f 21/63/37 22/64/37 24/47/37
f 22/64/37 23/65/37 24/47/37
f 24/47/37 25/66/37 26/67/37
f 26/67/37 27/68/37 28/69/37
f 28/69/37 29/70/37 32/48/37
f 29/70/37 30/71/37 32/48/37
f 30/71/37 31/72/37 32/48/37
f 32/48/37 33/73/37 34/74/37
f 34/74/37 35/75/37 36/76/37
f 36/76/37 37/77/37 40/49/37
f 37/77/37 38/78/37 40/49/37
f 38/78/37 39/79/37 40/49/37
f 40/49/37 10/52/37 12/54/37
f 12/54/37 14/56/37 40/49/37
f 14/56/37 16/58/37 40/49/37
f 16/58/37 18/60/37 24/47/37
f 18/60/37 20/62/37 24/47/37
f 24/47/37 26/67/37 32/48/37
f 26/67/37 28/69/37 32/48/37
f 32/48/37 34/74/37 40/49/37
f 34/74/37 36/76/37 40/49/37
f 40/49/37 16/58/37 24/47/37
o 平面
v -0.377272 -0.057390 -0.000000
v -0.262492 -0.057390 -0.000000
v -0.377272 0.057390 0.000000
v -0.262492 0.057390 0.000000
v -0.334282 0.000000 0.000000
v -0.219502 0.000000 0.000000
v -0.333986 -0.057390 -0.000000
v -0.333986 0.057390 0.000000
v -0.290997 0.000000 0.000000
v -0.305535 0.057390 0.000000
v -0.262545 0.000000 0.000000
v -0.305535 -0.057390 -0.000000
vn -0.0000 -0.0000 1.0000
vt 0.762842 0.467478
vt 0.993161 0.466291
vt 0.993161 0.640006
vt 0.762842 0.179578
vt 0.993161 0.179367
vt 0.993161 0.352107
vt 0.532522 0.466291
vt 0.532522 0.640006
vt 0.532522 0.179367
vt 0.532522 0.352107
vt 0.762842 0.293762
vt 0.762842 0.006839
s 0
usemtl Material
f 46/80/40 49/81/40 44/82/40
f 52/83/40 45/84/40 51/85/40
f 48/86/40 46/80/40 42/87/40
f 43/88/40 52/83/40 53/89/40
f 50/90/40 51/85/40 49/81/40
f 53/89/40 50/90/40 48/86/40
f 46/80/40 50/90/40 49/81/40
f 52/83/40 47/91/40 45/84/40
f 48/86/40 50/90/40 46/80/40
f 43/88/40 47/91/40 52/83/40
f 50/90/40 52/83/40 51/85/40
f 53/89/40 52/83/40 50/90/40
