# Blender 5.1.1
# www.blender.org
mtllib cue_stick.mtl
o Cue_Stick
v -0.003712 -1.000000 0.746466
v -0.003712 -1.000000 0.753534
v -0.020245 1.000000 0.727655
v -0.020245 1.000000 0.772344
v 0.003712 -1.000000 0.746466
v 0.003712 -1.000000 0.753534
v 0.020245 1.000000 0.727655
v 0.020245 1.000000 0.772344
v -0.017893 -0.165808 0.729652
v -0.017893 -0.165808 0.770348
v 0.017893 -0.165808 0.729652
v 0.017893 -0.165808 0.770348
v -0.010011 -0.829864 0.739122
v 0.010011 -0.829864 0.760879
v -0.010011 -0.829864 0.760879
v 0.010011 -0.829864 0.739122
v 0.000000 1.000000 0.721748
v 0.000000 1.000000 0.778251
v 0.000000 -1.000000 0.744985
v 0.000000 -1.000000 0.755016
v 0.000000 -0.165808 0.777148
v 0.000000 -0.165808 0.722852
v 0.000000 -0.829864 0.763926
v 0.000000 -0.829864 0.736075
v -0.005294 -1.000000 0.750000
v -0.028660 1.000000 0.750000
v 0.028660 1.000000 0.750000
v 0.005294 -1.000000 0.750000
v 0.026604 -0.165808 0.750000
v -0.026604 -0.165808 0.750000
v -0.014512 -0.829864 0.750000
v 0.014512 -0.829864 0.750000
v 0.000000 -1.000000 0.750000
v 0.000000 1.000000 0.750000
v -0.033749 0.935055 0.788989
v 0.033749 0.935055 0.711011
v -0.033749 0.935055 0.711011
v 0.033749 0.935055 0.788989
v 0.000000 0.935055 0.701458
v 0.000000 0.935055 0.798542
v 0.048760 0.935055 0.750000
v -0.048760 0.935055 0.750000
v -0.006646 -0.990927 0.743008
v 0.006646 -0.990927 0.756992
v -0.006646 -0.990927 0.756992
v 0.006646 -0.990927 0.743008
v 0.000000 -0.990927 0.759049
v 0.000000 -0.990927 0.740952
v -0.009236 -0.990927 0.750000
v 0.009236 -0.990927 0.750000
v -0.033901 0.974743 0.788481
v 0.033901 0.974743 0.711519
v -0.048609 0.974743 0.750000
v -0.033901 0.974743 0.711519
v 0.033901 0.974743 0.788481
v -0.000000 0.974743 0.701819
v -0.000000 0.974743 0.798181
v 0.048609 0.974743 0.750000
vn -0.7530 0.5924 0.2863
vn -0.0000 1.0000 -0.0000
vn 0.8564 -0.3892 0.3394
vn -0.0000 -1.0000 -0.0000
vn 0.2956 -0.4050 -0.8652
vn -0.2956 -0.4050 0.8652
vn -0.3018 -0.0195 0.9532
vn 0.3018 -0.0195 -0.9532
vn 0.9284 -0.0192 0.3712
vn -0.9208 -0.0166 0.3896
vn -0.9291 -0.0294 0.3687
vn -0.3327 -0.0181 0.9428
vn 0.3327 -0.0181 -0.9428
vn 0.9208 -0.0166 0.3896
vn -0.3327 -0.0181 -0.9428
vn 0.3327 -0.0181 0.9428
vn -0.3018 -0.0195 -0.9532
vn 0.3018 -0.0195 0.9532
vn 0.2956 -0.4050 0.8652
vn -0.2956 -0.4050 -0.8652
vn 0.9208 -0.0166 -0.3896
vn -0.9291 -0.0294 -0.3687
vn -0.9208 -0.0166 -0.3896
vn 0.9284 -0.0192 -0.3712
vn 0.8564 -0.3892 -0.3394
vn -0.7530 0.5924 -0.2863
vn -0.9284 -0.0192 -0.3712
vn 0.9337 0.0023 -0.3582
vn 0.2737 0.0100 0.9618
vn -0.2737 0.0100 -0.9618
vn 0.9337 0.0023 0.3582
vn 0.2737 0.0100 -0.9618
vn -0.2737 0.0100 0.9618
vn -0.9284 -0.0192 0.3712
vn 0.9291 -0.0294 -0.3687
vn -0.8564 -0.3892 -0.3394
vn -0.2929 -0.0291 -0.9557
vn 0.2929 -0.0291 0.9557
vn -0.8564 -0.3892 0.3394
vn -0.2929 -0.0291 0.9557
vn 0.2929 -0.0291 -0.9557
vn 0.9291 -0.0294 0.3687
vn -0.2204 0.6055 0.7647
vn 0.2204 0.6055 -0.7647
vn 0.7530 0.5924 0.2863
vn -0.2204 0.6055 -0.7647
vn 0.2204 0.6055 0.7647
vn 0.7530 0.5924 -0.2863
vn -0.9337 0.0023 -0.3582
vn -0.9337 0.0023 0.3582
vt 0.747183 0.681955
vt 0.886839 0.694053
vt 0.846832 0.753832
vt 0.765856 0.747217
vt 0.792684 0.840978
vt 0.885107 0.814533
vt 0.884733 0.886292
vt 0.819511 0.934738
vt 0.020122 0.682728
vt 0.045456 0.684113
vt 0.037166 0.697129
vt 0.024088 0.695543
vt 0.029414 0.712751
vt 0.045718 0.707705
vt 0.044635 0.721263
vt 0.034739 0.729959
vt -0.000000 0.721854
vt -0.000000 0.698180
vt 0.014192 0.704239
vt 0.013109 0.717797
vt 0.058827 0.703648
vt 0.058827 0.727321
vt 0.812632 0.013210
vt 0.931933 0.013163
vt 0.898125 0.394655
vt 0.833105 0.393892
vt 0.613027 0.668745
vt 0.493726 0.668792
vt 0.527533 0.287300
vt 0.592553 0.288063
vt 0.104184 0.013270
vt 0.246333 0.013323
vt 0.206583 0.394695
vt 0.131288 0.394239
vt 0.346638 0.059306
vt 0.375311 0.055072
vt 0.414641 0.280427
vt 0.361378 0.288489
vt 0.340100 0.002573
vt 0.358913 -0.000000
vt 0.881382 0.623752
vt 0.845778 0.623669
vt 0.544276 0.058203
vt 0.579880 0.058286
vt 0.186085 0.623590
vt 0.146028 0.623422
vt 0.643695 0.282652
vt 0.609266 0.055603
vt 0.781963 0.399303
vt 0.816393 0.626353
vt 0.712829 0.660025
vt 0.712829 0.021930
vt 0.013372 0.741389
vt 0.021661 0.728373
vt 0.700635 0.795664
vt 0.700261 0.867423
vt 0.078026 0.402301
vt 0.117355 0.627656
vt 0.314738 0.002614
vt 0.306581 0.059138
vt 0.286084 0.288033
vt -0.000000 0.027897
vt 0.738535 0.928123
vt 0.635062 0.766094
vt 0.388482 0.669458
vt 0.246333 0.669405
vt 0.001446 0.014384
vt 0.104408 -0.000000
vt 0.712905 0.008806
vt 0.813049 -0.000000
vt 0.712754 0.673149
vt 0.612609 0.681955
vt 0.244570 -0.000000
vt 0.492666 0.681955
vt 0.932992 -0.000000
vt 0.492666 0.654831
vt 0.152566 0.680155
vt 0.133754 0.682728
vt 0.038705 0.742774
vt 0.575102 0.001797
vt 0.594577 0.000000
vt 0.850556 0.680158
vt 0.831081 0.681955
vt 0.874228 0.680229
vt 0.551430 0.001727
vt 0.177928 0.680115
vt 0.950305 0.795877
vt 0.698528 0.987902
vt 0.635062 0.886078
vt 0.950305 0.915861
vt 0.838185 1.000000
vt 0.388258 0.682728
vt 0.248096 0.682728
vt 0.491221 0.668344
s 0
usemtl Material.004
f 53/1/1 51/2/1 4/3/1 26/4/1
f 34/5/2 18/6/2 8/7/2 27/8/2
f 50/9/3 44/10/3 6/11/3 28/12/3
f 33/13/4 20/14/4 2/15/4 25/16/4
f 48/17/5 46/18/5 5/19/5 19/20/5
f 47/21/6 45/22/6 2/15/6 20/14/6
f 40/23/7 35/24/7 10/25/7 21/26/7
f 39/27/8 36/28/8 11/29/8 22/30/8
f 41/31/9 38/32/9 12/33/9 29/34/9
f 31/35/10 15/36/10 10/37/10 30/38/10
f 49/39/11 45/40/11 15/36/11 31/35/11
f 21/26/12 10/25/12 15/41/12 23/42/12
f 22/30/13 11/29/13 16/43/13 24/44/13
f 29/34/14 12/33/14 14/45/14 32/46/14
f 9/47/15 22/30/15 24/44/15 13/48/15
f 12/49/16 21/26/16 23/42/16 14/50/16
f 37/51/17 39/27/17 22/30/17 9/47/17
f 38/52/18 40/23/18 21/26/18 12/49/18
f 44/10/19 47/21/19 20/14/19 6/11/19
f 43/53/20 48/17/20 19/20/20 1/54/20
f 28/12/4 6/11/4 20/14/4 33/13/4
f 26/4/2 4/3/2 18/6/2 34/5/2
f 3/55/2 26/4/2 34/5/2 17/56/2
f 5/19/4 28/12/4 33/13/4 19/20/4
f 11/57/21 29/34/21 32/46/21 16/58/21
f 43/59/22 49/39/22 31/35/22 13/60/22
f 13/60/23 31/35/23 30/38/23 9/61/23
f 36/62/24 41/31/24 29/34/24 11/57/24
f 19/20/4 33/13/4 25/16/4 1/54/4
f 46/18/25 50/9/25 28/12/25 5/19/25
f 17/56/2 34/5/2 27/8/2 7/63/2
f 54/64/26 53/1/26 26/4/26 3/55/26
f 9/61/27 30/38/27 42/65/27 37/66/27
f 52/67/28 58/68/28 41/31/28 36/62/28
f 55/69/29 57/70/29 40/23/29 38/52/29
f 54/71/30 56/72/30 39/27/30 37/51/30
f 58/68/31 55/73/31 38/32/31 41/31/31
f 56/72/32 52/74/32 36/28/32 39/27/32
f 57/70/33 51/75/33 35/24/33 40/23/33
f 30/38/34 10/37/34 35/76/34 42/65/34
f 16/58/35 32/46/35 50/77/35 46/78/35
f 1/54/36 25/16/36 49/79/36 43/53/36
f 13/48/37 24/44/37 48/80/37 43/81/37
f 14/50/38 23/42/38 47/82/38 44/83/38
f 25/16/39 2/15/39 45/22/39 49/79/39
f 23/42/40 15/41/40 45/84/40 47/82/40
f 24/44/41 16/43/41 46/85/41 48/80/41
f 32/46/42 14/45/42 44/86/42 50/77/42
f 18/6/43 4/3/43 51/2/43 57/87/43
f 17/56/44 7/63/44 52/88/44 56/89/44
f 27/8/45 8/7/45 55/90/45 58/91/45
f 3/55/46 17/56/46 56/89/46 54/64/46
f 8/7/47 18/6/47 57/87/47 55/90/47
f 7/63/48 27/8/48 58/91/48 52/88/48
f 37/66/49 42/65/49 53/92/49 54/93/49
f 42/65/50 35/76/50 51/94/50 53/92/50
