# Blender 5.1.1
# www.blender.org
mtllib needle.mtl
o 球.001
v 0.000000 0.213522 -0.000000
v 0.000000 0.177537 -0.118627
v 0.000000 0.118627 -0.177537
v 0.000000 0.041656 -0.209419
v 0.000000 -0.000000 -0.213522
v 0.000000 -0.041656 -0.209419
v 0.000000 -0.118627 -0.177537
v 0.000000 -0.213522 0.000000
v 0.008127 0.209419 -0.040856
v 0.015941 0.197269 -0.080141
v 0.023143 0.177537 -0.116347
v 0.029455 0.150983 -0.148082
v 0.034636 0.118627 -0.174126
v 0.038485 0.081711 -0.193478
v 0.040856 0.041656 -0.205395
v 0.041656 -0.000000 -0.209419
v 0.040856 -0.041656 -0.205395
v 0.038485 -0.081711 -0.193478
v 0.034636 -0.118627 -0.174126
v 0.029455 -0.150983 -0.148082
v 0.023143 -0.177537 -0.116347
v 0.015941 -0.197269 -0.080141
v 0.008127 -0.209419 -0.040856
v 0.015941 0.209419 -0.038485
v 0.031270 0.197269 -0.075491
v 0.045396 0.177537 -0.109597
v 0.057779 0.150983 -0.139490
v 0.067941 0.118627 -0.164023
v 0.075491 0.081711 -0.182253
v 0.080141 0.041656 -0.193478
v 0.081711 -0.000000 -0.197269
v 0.080141 -0.041656 -0.193478
v 0.075491 -0.081711 -0.182253
v 0.067941 -0.118627 -0.164023
v 0.057779 -0.150983 -0.139490
v 0.045396 -0.177537 -0.109597
v 0.031270 -0.197269 -0.075491
v 0.015941 -0.209419 -0.038485
v 0.023143 0.209419 -0.034636
v 0.045396 0.197269 -0.067941
v 0.065905 0.177537 -0.098634
v 0.083882 0.150983 -0.125538
v 0.098634 0.118627 -0.147617
v 0.109597 0.081711 -0.164023
v 0.116347 0.041656 -0.174126
v 0.118627 -0.000000 -0.177537
v 0.116347 -0.041656 -0.174126
v 0.109597 -0.081711 -0.164023
v 0.098634 -0.118627 -0.147617
v 0.083882 -0.150983 -0.125538
v 0.065905 -0.177537 -0.098634
v 0.045396 -0.197269 -0.067941
v 0.023143 -0.209419 -0.034636
v 0.029455 0.209419 -0.029455
v 0.057779 0.197269 -0.057779
v 0.083882 0.177537 -0.083882
v 0.106761 0.150983 -0.106761
v 0.125538 0.118627 -0.125538
v 0.139490 0.081711 -0.139490
v 0.148082 0.041656 -0.148082
v 0.150983 -0.000000 -0.150983
v 0.148082 -0.041656 -0.148082
v 0.139490 -0.081711 -0.139490
v 0.125538 -0.118627 -0.125538
v 0.106761 -0.150983 -0.106761
v 0.083882 -0.177537 -0.083882
v 0.057779 -0.197269 -0.057779
v 0.029455 -0.209419 -0.029455
v 0.034636 0.209419 -0.023143
v 0.067941 0.197269 -0.045396
v 0.098634 0.177537 -0.065905
v 0.125538 0.150983 -0.083882
v 0.147617 0.118627 -0.098634
v 0.164023 0.081711 -0.109597
v 0.174126 0.041656 -0.116347
v 0.177537 -0.000000 -0.118626
v 0.174126 -0.041656 -0.116347
v 0.164023 -0.081711 -0.109597
v 0.147617 -0.118627 -0.098634
v 0.125538 -0.150983 -0.083882
v 0.098634 -0.177537 -0.065905
v 0.067941 -0.197269 -0.045396
v 0.034636 -0.209419 -0.023143
v 0.038485 0.209419 -0.015941
v 0.075491 0.197269 -0.031270
v 0.109597 0.177537 -0.045396
v 0.139490 0.150983 -0.057779
v 0.164023 0.118627 -0.067940
v 0.182253 0.081711 -0.075491
v 0.193478 0.041656 -0.080141
v 0.197269 -0.000000 -0.081711
v 0.193478 -0.041656 -0.080141
v 0.182253 -0.081711 -0.075491
v 0.164023 -0.118627 -0.067940
v 0.139490 -0.150983 -0.057779
v 0.109597 -0.177537 -0.045396
v 0.075491 -0.197269 -0.031270
v 0.038485 -0.209419 -0.015941
v 0.040856 0.209419 -0.008127
v 0.080141 0.197269 -0.015941
v 0.116347 0.177537 -0.023143
v 0.148082 0.150983 -0.029455
v 0.174126 0.118627 -0.034636
v 0.193478 0.081711 -0.038485
v 0.205395 0.041656 -0.040856
v 0.209419 -0.000000 -0.041656
v 0.205395 -0.041656 -0.040856
v 0.193478 -0.081711 -0.038485
v 0.174126 -0.118627 -0.034636
v 0.148082 -0.150983 -0.029455
v 0.116347 -0.177537 -0.023143
v 0.080141 -0.197269 -0.015941
v 0.040856 -0.209419 -0.008127
v 0.041656 0.209419 -0.000000
v 0.081711 0.197269 -0.000000
v 0.118627 0.177537 -0.000000
v 0.150983 0.150983 -0.000000
v 0.177537 0.118627 -0.000000
v 0.197269 0.081711 -0.000000
v 0.209419 0.041656 -0.000000
v 0.213522 0.000000 0.000000
v 0.209419 -0.041656 0.000000
v 0.197269 -0.081711 0.000000
v 0.177537 -0.118627 0.000000
v 0.150983 -0.150983 0.000000
v 0.118627 -0.177537 0.000000
v 0.081711 -0.197269 0.000000
v 0.041656 -0.209419 0.000000
v 0.040856 0.209419 0.008127
v 0.080141 0.197269 0.015941
v 0.116347 0.177537 0.023143
v 0.148082 0.150983 0.029455
v 0.174126 0.118627 0.034636
v 0.193478 0.081711 0.038485
v 0.205395 0.041656 0.040856
v 0.209419 0.000000 0.041656
v 0.205395 -0.041656 0.040856
v 0.193478 -0.081711 0.038485
v 0.174126 -0.118627 0.034636
v 0.148082 -0.150983 0.029455
v 0.116347 -0.177537 0.023143
v 0.080141 -0.197269 0.015941
v 0.040856 -0.209419 0.008127
v 0.038485 0.209419 0.015941
v 0.075491 0.197269 0.031270
v 0.109597 0.177537 0.045396
v 0.139490 0.150983 0.057779
v 0.164023 0.118627 0.067941
v 0.182253 0.081711 0.075491
v 0.193478 0.041656 0.080141
v 0.197269 0.000000 0.081711
v 0.193478 -0.041656 0.080141
v 0.182253 -0.081711 0.075491
v 0.164023 -0.118627 0.067941
v 0.139490 -0.150983 0.057779
v 0.109597 -0.177537 0.045396
v 0.075491 -0.197269 0.031270
v 0.038485 -0.209419 0.015941
v 0.034636 0.209419 0.023143
v 0.067941 0.197269 0.045396
v 0.098634 0.177537 0.065905
v 0.125538 0.150983 0.083882
v 0.147617 0.118627 0.098634
v 0.164023 0.081711 0.109597
v 0.174126 0.041656 0.116347
v 0.177537 0.000000 0.118627
v 0.174126 -0.041656 0.116347
v 0.164023 -0.081711 0.109597
v 0.147617 -0.118627 0.098634
v 0.125538 -0.150983 0.083882
v 0.098634 -0.177537 0.065905
v 0.067941 -0.197269 0.045396
v 0.034636 -0.209419 0.023143
v 0.029455 0.209419 0.029455
v 0.057779 0.197269 0.057779
v 0.083882 0.177537 0.083882
v 0.106761 0.150983 0.106761
v 0.125538 0.118627 0.125538
v 0.139490 0.081711 0.139490
v 0.148082 0.041656 0.148082
v 0.150983 0.000000 0.150983
v 0.148082 -0.041656 0.148082
v 0.139490 -0.081711 0.139490
v 0.125538 -0.118627 0.125538
v 0.106761 -0.150983 0.106761
v 0.083882 -0.177537 0.083882
v 0.057779 -0.197269 0.057779
v 0.029455 -0.209419 0.029455
v 0.023143 0.209419 0.034636
v 0.045396 0.197269 0.067941
v 0.065905 0.177537 0.098634
v 0.083882 0.150983 0.125538
v 0.098634 0.118627 0.147617
v 0.109597 0.081711 0.164023
v 0.116347 0.041656 0.174126
v 0.118626 0.000000 0.177537
v 0.116347 -0.041656 0.174126
v 0.109597 -0.081711 0.164023
v 0.098634 -0.118627 0.147617
v 0.083882 -0.150983 0.125538
v 0.065905 -0.177537 0.098634
v 0.045396 -0.197269 0.067941
v 0.023143 -0.209419 0.034636
v 0.015941 0.209419 0.038485
v 0.031270 0.197269 0.075491
v 0.045396 0.177537 0.109597
v 0.057779 0.150983 0.139490
v 0.067940 0.118627 0.164023
v 0.075491 0.081711 0.182252
v 0.080141 0.041656 0.193478
v 0.081711 0.000000 0.197269
v 0.080141 -0.041656 0.193478
v 0.075491 -0.081711 0.182252
v 0.067940 -0.118627 0.164023
v 0.057779 -0.150983 0.139490
v 0.045396 -0.177537 0.109597
v 0.031270 -0.197269 0.075491
v 0.015941 -0.209419 0.038485
v 0.008127 0.209419 0.040856
v 0.015941 0.197269 0.080141
v 0.023143 0.177537 0.116347
v 0.029455 0.150983 0.148082
v 0.034636 0.118627 0.174126
v 0.038485 0.081711 0.193478
v 0.040856 0.041656 0.205395
v 0.041656 0.000000 0.209419
v 0.040856 -0.041656 0.205395
v 0.038485 -0.081711 0.193478
v 0.034636 -0.118627 0.174126
v 0.029455 -0.150983 0.148082
v 0.023143 -0.177537 0.116347
v 0.015941 -0.197269 0.080141
v 0.008127 -0.209419 0.040856
v 0.000000 0.209419 0.041656
v 0.000000 0.197269 0.081711
v 0.000000 0.177537 0.118626
v 0.000000 0.150983 0.150983
v 0.000000 0.118627 0.177537
v 0.000000 0.081711 0.197269
v 0.000000 0.041656 0.209419
v 0.000000 0.000000 0.213522
v 0.000000 -0.041656 0.209419
v 0.000000 -0.081711 0.197269
v 0.000000 -0.118627 0.177537
v 0.000000 -0.150983 0.150983
v 0.000000 -0.177537 0.118626
v 0.000000 -0.197269 0.081711
v 0.000000 -0.209419 0.041656
v -0.008127 0.209419 0.040856
v -0.015941 0.197269 0.080141
v -0.023143 0.177537 0.116347
v -0.029455 0.150983 0.148082
v -0.034636 0.118627 0.174126
v -0.038485 0.081711 0.193478
v -0.040856 0.041656 0.205395
v -0.041656 0.000000 0.209419
v -0.040856 -0.041656 0.205395
v -0.038485 -0.081711 0.193478
v -0.034636 -0.118627 0.174126
v -0.029455 -0.150983 0.148082
v -0.023143 -0.177537 0.116347
v -0.015941 -0.197269 0.080141
v -0.008127 -0.209419 0.040856
v -0.015941 0.209419 0.038485
v -0.031270 0.197269 0.075491
v -0.045396 0.177537 0.109597
v -0.057779 0.150983 0.139490
v -0.067941 0.118627 0.164023
v -0.075491 0.081711 0.182252
v -0.080141 0.041656 0.193478
v -0.081711 0.000000 0.197269
v -0.080141 -0.041656 0.193478
v -0.075491 -0.081711 0.182252
v -0.067941 -0.118627 0.164023
v -0.057779 -0.150983 0.139490
v -0.045396 -0.177537 0.109597
v -0.031270 -0.197269 0.075491
v -0.015941 -0.209419 0.038485
v -0.023143 0.209419 0.034636
v -0.045396 0.197269 0.067941
v -0.065905 0.177537 0.098634
v -0.083882 0.150983 0.125538
v -0.098634 0.118627 0.147617
v -0.109597 0.081711 0.164023
v -0.116347 0.041656 0.174126
v -0.118627 0.000000 0.177537
v -0.116347 -0.041656 0.174126
v -0.109597 -0.081711 0.164023
v -0.098634 -0.118627 0.147617
v -0.083882 -0.150983 0.125538
v -0.065905 -0.177537 0.098634
v -0.045396 -0.197269 0.067941
v -0.023143 -0.209419 0.034636
v -0.029455 0.209419 0.029455
v -0.057779 0.197269 0.057779
v -0.083882 0.177537 0.083882
v -0.106761 0.150983 0.106761
v -0.125538 0.118627 0.125538
v -0.139490 0.081711 0.139490
v -0.148082 0.041656 0.148082
v -0.150983 0.000000 0.150983
v -0.148082 -0.041656 0.148082
v -0.139490 -0.081711 0.139490
v -0.125538 -0.118627 0.125538
v -0.106761 -0.150983 0.106761
v -0.083882 -0.177537 0.083882
v -0.057779 -0.197269 0.057779
v -0.029455 -0.209419 0.029455
v -0.034636 0.209419 0.023143
v -0.067941 0.197269 0.045396
v -0.098634 0.177537 0.065905
v -0.125538 0.150983 0.083882
v -0.147617 0.118627 0.098634
v -0.164023 0.081711 0.109597
v -0.174126 0.041656 0.116347
v -0.177537 0.000000 0.118626
v -0.174126 -0.041656 0.116347
v -0.164023 -0.081711 0.109597
v -0.147617 -0.118627 0.098634
v -0.125538 -0.150983 0.083882
v -0.098634 -0.177537 0.065905
v -0.067941 -0.197269 0.045396
v -0.034636 -0.209419 0.023143
v -0.038485 0.209419 0.015941
v -0.075491 0.197269 0.031270
v -0.109597 0.177537 0.045396
v -0.139490 0.150983 0.057779
v -0.164023 0.118627 0.067940
v -0.182252 0.081711 0.075491
v -0.193478 0.041656 0.080141
v -0.197269 0.000000 0.081711
v -0.193478 -0.041656 0.080141
v -0.182252 -0.081711 0.075491
v -0.164023 -0.118627 0.067940
v -0.139490 -0.150983 0.057779
v -0.109597 -0.177537 0.045396
v -0.075491 -0.197269 0.031270
v -0.038485 -0.209419 0.015941
v -0.040856 0.209419 0.008127
v -0.080141 0.197269 0.015941
v -0.116347 0.177537 0.023143
v -0.148082 0.150983 0.029455
v -0.174126 0.118627 0.034636
v -0.193478 0.081711 0.038485
v -0.205395 0.041656 0.040856
v -0.209419 0.000000 0.041656
v -0.205395 -0.041656 0.040856
v -0.193478 -0.081711 0.038485
v -0.174126 -0.118627 0.034636
v -0.148082 -0.150983 0.029455
v -0.116347 -0.177537 0.023143
v -0.080141 -0.197269 0.015941
v -0.040856 -0.209419 0.008127
v -0.041656 0.209419 -0.000000
v -0.081711 0.197269 -0.000000
v -0.118626 0.177537 -0.000000
v -0.150983 0.150983 -0.000000
v -0.177537 0.118627 -0.000000
v -0.197269 0.081711 -0.000000
v -0.209419 0.041656 -0.000000
v -0.213522 0.000000 0.000000
v -0.209419 -0.041656 0.000000
v -0.197269 -0.081711 0.000000
v -0.177537 -0.118627 0.000000
v -0.150983 -0.150983 0.000000
v -0.118626 -0.177537 0.000000
v -0.081711 -0.197269 0.000000
v -0.041656 -0.209419 0.000000
v -0.040856 0.209419 -0.008127
v -0.080141 0.197269 -0.015941
v -0.116347 0.177537 -0.023143
v -0.148082 0.150983 -0.029455
v -0.174126 0.118627 -0.034636
v -0.193478 0.081711 -0.038485
v -0.205395 0.041656 -0.040856
v -0.209419 -0.000000 -0.041656
v -0.205395 -0.041656 -0.040856
v -0.193478 -0.081711 -0.038485
v -0.174126 -0.118627 -0.034636
v -0.148082 -0.150983 -0.029455
v -0.116347 -0.177537 -0.023143
v -0.080141 -0.197269 -0.015941
v -0.040856 -0.209419 -0.008127
v -0.038485 0.209419 -0.015941
v -0.075491 0.197269 -0.031270
v -0.109597 0.177537 -0.045396
v -0.139490 0.150983 -0.057779
v -0.164023 0.118627 -0.067941
v -0.182252 0.081711 -0.075491
v -0.193478 0.041656 -0.080141
v -0.197268 -0.000000 -0.081711
v -0.193478 -0.041656 -0.080141
v -0.182252 -0.081711 -0.075491
v -0.164023 -0.118627 -0.067941
v -0.139490 -0.150983 -0.057779
v -0.109597 -0.177537 -0.045396
v -0.075491 -0.197269 -0.031270
v -0.038485 -0.209419 -0.015941
v -0.034636 0.209419 -0.023143
v -0.067940 0.197269 -0.045396
v -0.098634 0.177537 -0.065905
v -0.125538 0.150983 -0.083882
v -0.147617 0.118627 -0.098634
v -0.164023 0.081711 -0.109597
v -0.174126 0.041656 -0.116347
v -0.177537 -0.000000 -0.118626
v -0.174126 -0.041656 -0.116347
v -0.164023 -0.081711 -0.109597
v -0.147617 -0.118627 -0.098634
v -0.125538 -0.150983 -0.083882
v -0.098634 -0.177537 -0.065905
v -0.067940 -0.197269 -0.045396
v -0.034636 -0.209419 -0.023143
v -0.029455 0.209419 -0.029455
v -0.057779 0.197269 -0.057779
v -0.083882 0.177537 -0.083882
v -0.106761 0.150983 -0.106761
v -0.125538 0.118627 -0.125538
v -0.139490 0.081711 -0.139490
v -0.148082 0.041656 -0.148082
v -0.150983 -0.000000 -0.150983
v -0.148082 -0.041656 -0.148082
v -0.139490 -0.081711 -0.139490
v -0.125538 -0.118627 -0.125538
v -0.106761 -0.150983 -0.106761
v -0.083882 -0.177537 -0.083882
v -0.057779 -0.197269 -0.057779
v -0.029455 -0.209419 -0.029455
v -0.023143 0.209419 -0.034636
v -0.045396 0.197269 -0.067940
v -0.065905 0.177537 -0.098634
v -0.083882 0.150983 -0.125538
v -0.098634 0.118627 -0.147617
v -0.109597 0.081711 -0.164023
v -0.116347 0.041656 -0.174126
v -0.118626 -0.000000 -0.177537
v -0.116347 -0.041656 -0.174126
v -0.109597 -0.081711 -0.164023
v -0.098634 -0.118627 -0.147617
v -0.083882 -0.150983 -0.125538
v -0.065905 -0.177537 -0.098634
v -0.045396 -0.197269 -0.067940
v -0.023143 -0.209419 -0.034636
v -0.015941 0.209419 -0.038485
v -0.031270 0.197269 -0.075491
v -0.045396 0.177537 -0.109597
v -0.057779 0.150983 -0.139490
v -0.067940 0.118627 -0.164023
v -0.075491 0.081711 -0.182252
v -0.080141 0.041656 -0.193478
v -0.081711 -0.000000 -0.197269
v -0.080141 -0.041656 -0.193478
v -0.075491 -0.081711 -0.182252
v -0.067940 -0.118627 -0.164023
v -0.057779 -0.150983 -0.139490
v -0.045396 -0.177537 -0.109597
v -0.031270 -0.197269 -0.075491
v -0.015941 -0.209419 -0.038485
v -0.008127 0.209419 -0.040856
v -0.015941 0.197269 -0.080141
v -0.023143 0.177537 -0.116347
v -0.029455 0.150983 -0.148082
v -0.034636 0.118627 -0.174126
v -0.038485 0.081711 -0.193478
v -0.040856 0.041656 -0.205395
v -0.041656 -0.000000 -0.209419
v -0.040856 -0.041656 -0.205395
v -0.038485 -0.081711 -0.193478
v -0.034636 -0.118627 -0.174126
v -0.029455 -0.150983 -0.148082
v -0.023143 -0.177537 -0.116347
v -0.015941 -0.197269 -0.080141
v -0.008127 -0.209419 -0.040856
v 0.000000 0.209419 -0.041656
v 0.000000 0.197269 -0.081711
v 0.000000 0.150983 -0.150983
v 0.000000 0.081711 -0.197269
v 0.000000 -0.081711 -0.197269
v 0.000000 -0.150983 -0.150983
v 0.000000 -0.177537 -0.118626
v 0.000000 -0.197269 -0.081711
v 0.000000 -0.209419 -0.041656
v 0.000000 -0.001762 -0.147983
v 0.028870 -0.001762 -0.145140
v 0.056631 -0.001762 -0.136719
v 0.082215 -0.001762 -0.123044
v 0.104640 -0.001762 -0.104640
v 0.123044 -0.001762 -0.082215
v 0.136719 -0.001762 -0.056631
v 0.145140 -0.001762 -0.028870
v 0.147983 -0.001762 0.000000
v 0.145140 -0.001762 0.028870
v 0.136719 -0.001762 0.056631
v 0.123044 -0.001762 0.082215
v 0.104640 -0.001762 0.104640
v 0.082215 -0.001762 0.123044
v 0.056631 -0.001762 0.136719
v 0.028870 -0.001762 0.145140
v 0.000000 -0.001762 0.147983
v -0.028870 -0.001762 0.145140
v -0.056631 -0.001762 0.136719
v -0.082215 -0.001762 0.123044
v -0.104640 -0.001762 0.104640
v -0.123044 -0.001762 0.082215
v -0.136719 -0.001762 0.056631
v -0.145140 -0.001762 0.028870
v -0.147983 -0.001762 0.000000
v -0.145140 -0.001762 -0.028870
v -0.136719 -0.001762 -0.056631
v -0.123044 -0.001762 -0.082215
v -0.104640 -0.001762 -0.104640
v -0.082215 -0.001762 -0.123044
v -0.056631 -0.001762 -0.136719
v -0.028870 -0.001762 -0.145140
v 0.000000 0.587914 -0.000000
v -0.001762 -0.000000 -0.147983
v -0.001762 -0.028870 -0.145140
v -0.001762 -0.056631 -0.136719
v -0.001762 -0.082215 -0.123044
v -0.001762 -0.104640 -0.104640
v -0.001762 -0.123044 -0.082215
v -0.001762 -0.136719 -0.056631
v -0.001762 -0.145140 -0.028870
v -0.001762 -0.147983 0.000000
v -0.001762 -0.145140 0.028870
v -0.001762 -0.136719 0.056631
v -0.001762 -0.123044 0.082215
v -0.001762 -0.104640 0.104640
v -0.001762 -0.082215 0.123044
v -0.001762 -0.056631 0.136719
v -0.001762 -0.028870 0.145140
v -0.001762 0.000000 0.147983
v -0.001762 0.028870 0.145140
v -0.001762 0.056631 0.136719
v -0.001762 0.082215 0.123044
v -0.001762 0.104640 0.104640
v -0.001762 0.123044 0.082215
v -0.001762 0.136719 0.056631
v -0.001762 0.145140 0.028870
v -0.001762 0.147983 -0.000000
v -0.001762 0.145140 -0.028870
v -0.001762 0.136719 -0.056631
v -0.001762 0.123044 -0.082215
v -0.001762 0.104640 -0.104640
v -0.001762 0.082215 -0.123044
v -0.001762 0.056631 -0.136719
v -0.001762 0.028870 -0.145140
v 0.587914 0.000000 0.000000
v 0.000000 0.001762 -0.147983
v -0.028870 0.001762 -0.145140
v -0.056631 0.001762 -0.136719
v -0.082215 0.001762 -0.123044
v -0.104640 0.001762 -0.104640
v -0.123044 0.001762 -0.082215
v -0.136719 0.001762 -0.056631
v -0.145140 0.001762 -0.028870
v -0.147983 0.001762 -0.000000
v -0.145140 0.001762 0.028870
v -0.136719 0.001762 0.056631
v -0.123044 0.001762 0.082215
v -0.104640 0.001762 0.104640
v -0.082215 0.001762 0.123044
v -0.056631 0.001762 0.136719
v -0.028870 0.001762 0.145140
v 0.000000 0.001762 0.147983
v 0.028870 0.001762 0.145140
v 0.056631 0.001762 0.136719
v 0.082215 0.001762 0.123044
v 0.104640 0.001762 0.104640
v 0.123044 0.001762 0.082215
v 0.136719 0.001762 0.056631
v 0.145140 0.001762 0.028870
v 0.147983 0.001762 -0.000000
v 0.145140 0.001762 -0.028870
v 0.136719 0.001762 -0.056631
v 0.123044 0.001762 -0.082215
v 0.104640 0.001762 -0.104640
v 0.082215 0.001762 -0.123044
v 0.056631 0.001762 -0.136719
v 0.028870 0.001762 -0.145140
v 0.000000 -0.587914 0.000000
v 0.001762 -0.000000 -0.147983
v 0.001762 0.028870 -0.145140
v 0.001762 0.056631 -0.136719
v 0.001762 0.082215 -0.123044
v 0.001762 0.104640 -0.104640
v 0.001762 0.123044 -0.082215
v 0.001762 0.136719 -0.056631
v 0.001762 0.145140 -0.028870
v 0.001762 0.147983 -0.000000
v 0.001762 0.145140 0.028870
v 0.001762 0.136719 0.056631
v 0.001762 0.123044 0.082215
v 0.001762 0.104640 0.104640
v 0.001762 0.082215 0.123044
v 0.001762 0.056631 0.136719
v 0.001762 0.028870 0.145140
v 0.001762 0.000000 0.147983
v 0.001762 -0.028870 0.145140
v 0.001762 -0.056631 0.136719
v 0.001762 -0.082215 0.123044
v 0.001762 -0.104640 0.104640
v 0.001762 -0.123044 0.082215
v 0.001762 -0.136719 0.056631
v 0.001762 -0.145140 0.028870
v 0.001762 -0.147983 0.000000
v 0.001762 -0.145140 -0.028870
v 0.001762 -0.136719 -0.056631
v 0.001762 -0.123044 -0.082215
v 0.001762 -0.104640 -0.104640
v 0.001762 -0.082215 -0.123044
v 0.001762 -0.056631 -0.136719
v 0.001762 -0.028870 -0.145140
v -0.587914 0.000000 0.000000
v 0.000000 0.147983 -0.001762
v 0.028870 0.145140 -0.001762
v 0.056631 0.136719 -0.001762
v 0.082215 0.123044 -0.001762
v 0.104640 0.104640 -0.001762
v 0.123044 0.082215 -0.001762
v 0.136719 0.056631 -0.001762
v 0.145140 0.028870 -0.001762
v 0.147983 -0.000000 -0.001762
v 0.145140 -0.028870 -0.001762
v 0.136719 -0.056631 -0.001762
v 0.123044 -0.082215 -0.001762
v 0.104640 -0.104640 -0.001762
v 0.082215 -0.123044 -0.001762
v 0.056631 -0.136719 -0.001762
v 0.028870 -0.145140 -0.001762
v 0.000000 -0.147983 -0.001762
v -0.028870 -0.145140 -0.001762
v -0.056631 -0.136719 -0.001762
v -0.082215 -0.123044 -0.001762
v -0.104640 -0.104640 -0.001762
v -0.123044 -0.082215 -0.001762
v -0.136719 -0.056631 -0.001762
v -0.145140 -0.028870 -0.001762
v -0.147983 -0.000000 -0.001762
v -0.145140 0.028870 -0.001762
v -0.136719 0.056631 -0.001762
v -0.123044 0.082215 -0.001762
v -0.104640 0.104640 -0.001762
v -0.082215 0.123044 -0.001762
v -0.056631 0.136719 -0.001762
v -0.028870 0.145140 -0.001762
v 0.000000 0.000000 0.587914
v 0.000000 -0.147983 0.001762
v 0.028870 -0.145140 0.001762
v 0.056631 -0.136719 0.001762
v 0.082215 -0.123044 0.001762
v 0.104640 -0.104640 0.001762
v 0.123044 -0.082215 0.001762
v 0.136719 -0.056631 0.001762
v 0.145140 -0.028870 0.001762
v 0.147983 0.000000 0.001762
v 0.145140 0.028870 0.001762
v 0.136719 0.056631 0.001762
v 0.123044 0.082215 0.001762
v 0.104640 0.104640 0.001762
v 0.082215 0.123044 0.001762
v 0.056631 0.136719 0.001762
v 0.028870 0.145140 0.001762
v 0.000000 0.147983 0.001762
v -0.028870 0.145140 0.001762
v -0.056631 0.136719 0.001762
v -0.082215 0.123044 0.001762
v -0.104640 0.104640 0.001762
v -0.123044 0.082215 0.001762
v -0.136719 0.056631 0.001762
v -0.145140 0.028870 0.001762
v -0.147983 0.000000 0.001762
v -0.145140 -0.028870 0.001762
v -0.136719 -0.056631 0.001762
v -0.123044 -0.082215 0.001762
v -0.104640 -0.104640 0.001762
v -0.082215 -0.123044 0.001762
v -0.056631 -0.136719 0.001762
v -0.028870 -0.145140 0.001762
v 0.000000 -0.000000 -0.587914
vn -0.0000 -0.9217 -0.3879
vn 0.0392 -0.9796 -0.1971
vn -0.0000 -0.9796 -0.2010
vn -0.0000 0.1939 -0.9810
vn 0.1951 -0.0000 -0.9808
vn -0.0000 -0.0000 -1.0000
vn -0.0000 0.9796 -0.2010
vn -0.0000 1.0000 -0.0000
vn 0.0392 0.9796 -0.1971
vn -0.0000 -1.0000 -0.0000
vn -0.0000 -0.1939 -0.9810
vn 0.1914 -0.1939 -0.9622
vn -0.0000 0.9217 -0.3879
vn 0.0757 0.9217 -0.3804
vn 0.1804 -0.3805 -0.9070
vn -0.0000 -0.3805 -0.9248
vn 0.1092 0.8286 -0.5490
vn -0.0000 0.8286 -0.5598
vn -0.0000 -0.5528 -0.8333
vn 0.1626 -0.5528 -0.8173
vn 0.1385 0.7041 -0.6965
vn -0.0000 0.7041 -0.7101
vn 0.1385 -0.7041 -0.6965
vn -0.0000 -0.7041 -0.7101
vn -0.0000 0.5528 -0.8333
vn 0.1626 0.5528 -0.8173
vn 0.1092 -0.8286 -0.5490
vn -0.0000 -0.8286 -0.5598
vn 0.1804 0.3805 -0.9070
vn -0.0000 0.3805 -0.9248
vn 0.0757 -0.9217 -0.3804
vn 0.1914 0.1939 -0.9622
vn 0.2142 -0.8286 -0.5172
vn 0.1484 -0.9217 -0.3584
vn 0.3539 0.3805 -0.8544
vn 0.3754 0.1939 -0.9063
vn 0.0769 -0.9796 -0.1857
vn 0.3827 -0.0000 -0.9239
vn 0.0769 0.9796 -0.1857
vn 0.3754 -0.1939 -0.9063
vn 0.1484 0.9217 -0.3584
vn 0.3539 -0.3805 -0.8544
vn 0.2142 0.8286 -0.5172
vn 0.3189 -0.5528 -0.7699
vn 0.2718 0.7041 -0.6561
vn 0.2718 -0.7041 -0.6561
vn 0.3189 0.5528 -0.7699
vn 0.3110 0.8286 -0.4654
vn 0.5138 -0.3805 -0.7689
vn 0.4630 -0.5528 -0.6929
vn 0.3945 0.7041 -0.5905
vn 0.3945 -0.7041 -0.5905
vn 0.4630 0.5528 -0.6929
vn 0.3110 -0.8286 -0.4654
vn 0.5138 0.3805 -0.7689
vn 0.2155 -0.9217 -0.3225
vn 0.5450 0.1939 -0.8157
vn 0.1116 -0.9796 -0.1671
vn 0.5556 -0.0000 -0.8315
vn 0.1116 0.9796 -0.1671
vn 0.5450 -0.1939 -0.8157
vn 0.2155 0.9217 -0.3225
vn 0.6937 0.1939 -0.6937
vn 0.2743 -0.9217 -0.2743
vn 0.1421 -0.9796 -0.1421
vn 0.7071 -0.0000 -0.7071
vn 0.1421 0.9796 -0.1421
vn 0.6937 -0.1939 -0.6937
vn 0.2743 0.9217 -0.2743
vn 0.6539 -0.3805 -0.6539
vn 0.3958 0.8286 -0.3958
vn 0.5893 -0.5528 -0.5893
vn 0.5021 0.7041 -0.5021
vn 0.5021 -0.7041 -0.5021
vn 0.5893 0.5528 -0.5893
vn 0.3958 -0.8286 -0.3958
vn 0.6539 0.3805 -0.6539
vn 0.7689 -0.3805 -0.5138
vn 0.6929 -0.5528 -0.4630
vn 0.5905 0.7041 -0.3945
vn 0.5905 -0.7041 -0.3945
vn 0.6929 0.5528 -0.4630
vn 0.4654 -0.8286 -0.3110
vn 0.7689 0.3805 -0.5138
vn 0.3225 -0.9217 -0.2155
vn 0.8157 0.1939 -0.5450
vn 0.1671 -0.9796 -0.1116
vn 0.8315 -0.0000 -0.5556
vn 0.1671 0.9796 -0.1116
vn 0.8157 -0.1939 -0.5450
vn 0.3225 0.9217 -0.2155
vn 0.4654 0.8286 -0.3110
vn 0.3584 -0.9217 -0.1484
vn 0.1857 -0.9796 -0.0769
vn 0.9063 0.1939 -0.3754
vn 0.9239 -0.0000 -0.3827
vn 0.1857 0.9796 -0.0769
vn 0.9063 -0.1939 -0.3754
vn 0.3584 0.9217 -0.1484
vn 0.8544 -0.3805 -0.3539
vn 0.5172 0.8286 -0.2142
vn 0.7699 -0.5528 -0.3189
vn 0.6561 0.7041 -0.2718
vn 0.6561 -0.7041 -0.2718
vn 0.7699 0.5528 -0.3189
vn 0.5172 -0.8286 -0.2142
vn 0.8544 0.3805 -0.3539
vn 0.6965 0.7041 -0.1385
vn 0.6965 -0.7041 -0.1385
vn 0.8173 0.5528 -0.1626
vn 0.5490 -0.8286 -0.1092
vn 0.9070 0.3805 -0.1804
vn 0.3804 -0.9217 -0.0757
vn 0.9622 0.1939 -0.1914
vn 0.1971 -0.9796 -0.0392
vn 0.9808 -0.0000 -0.1951
vn 0.1971 0.9796 -0.0392
vn 0.9622 -0.1939 -0.1914
vn 0.3804 0.9217 -0.0757
vn 0.9070 -0.3805 -0.1804
vn 0.5490 0.8286 -0.1092
vn 0.8173 -0.5528 -0.1626
vn 0.9810 0.1939 -0.0000
vn 1.0000 -0.0000 -0.0000
vn 0.2010 0.9796 -0.0000
vn 0.2010 -0.9796 -0.0000
vn 0.9810 -0.1939 -0.0000
vn 0.3879 0.9217 -0.0000
vn 0.9248 -0.3805 -0.0000
vn 0.5598 0.8286 -0.0000
vn 0.8333 -0.5528 -0.0000
vn 0.7101 0.7041 -0.0000
vn 0.7101 -0.7041 -0.0000
vn 0.8333 0.5528 -0.0000
vn 0.5598 -0.8286 -0.0000
vn 0.9248 0.3805 -0.0000
vn 0.3879 -0.9217 -0.0000
vn 0.6965 -0.7041 0.1385
vn 0.6965 0.7041 0.1385
vn 0.8173 0.5528 0.1626
vn 0.5490 -0.8286 0.1092
vn 0.9070 0.3805 0.1804
vn 0.3804 -0.9217 0.0757
vn 0.9622 0.1939 0.1914
vn 0.1971 -0.9796 0.0392
vn 0.9808 -0.0000 0.1951
vn 0.1971 0.9796 0.0392
vn 0.9622 -0.1939 0.1914
vn 0.3804 0.9217 0.0757
vn 0.9070 -0.3805 0.1804
vn 0.5490 0.8286 0.1092
vn 0.8173 -0.5528 0.1626
vn 0.1857 -0.9796 0.0769
vn 0.9239 -0.0000 0.3827
vn 0.9063 -0.1939 0.3754
vn 0.3584 0.9217 0.1484
vn 0.8544 -0.3805 0.3539
vn 0.5172 0.8286 0.2142
vn 0.7699 -0.5528 0.3189
vn 0.6561 0.7041 0.2718
vn 0.6561 -0.7041 0.2718
vn 0.7699 0.5528 0.3189
vn 0.5172 -0.8286 0.2142
vn 0.8544 0.3805 0.3539
vn 0.3584 -0.9217 0.1484
vn 0.9063 0.1939 0.3754
vn 0.1857 0.9796 0.0769
vn 0.4654 -0.8286 0.3110
vn 0.7689 0.3805 0.5138
vn 0.3225 -0.9217 0.2155
vn 0.8157 0.1939 0.5450
vn 0.1671 -0.9796 0.1116
vn 0.8315 -0.0000 0.5556
vn 0.1671 0.9796 0.1116
vn 0.8157 -0.1939 0.5450
vn 0.3225 0.9217 0.2155
vn 0.7689 -0.3805 0.5138
vn 0.4654 0.8286 0.3110
vn 0.6929 -0.5528 0.4630
vn 0.5905 0.7041 0.3945
vn 0.5905 -0.7041 0.3945
vn 0.6929 0.5528 0.4630
vn 0.2743 0.9217 0.2743
vn 0.6937 -0.1939 0.6937
vn 0.6539 -0.3805 0.6539
vn 0.3958 0.8286 0.3958
vn 0.5893 -0.5528 0.5893
vn 0.5021 0.7041 0.5021
vn 0.5021 -0.7041 0.5021
vn 0.5893 0.5528 0.5893
vn 0.3958 -0.8286 0.3958
vn 0.6539 0.3805 0.6539
vn 0.2743 -0.9217 0.2743
vn 0.6937 0.1939 0.6937
vn 0.1421 -0.9796 0.1421
vn 0.7071 -0.0000 0.7071
vn 0.1421 0.9796 0.1421
vn 0.5138 0.3805 0.7689
vn 0.3110 -0.8286 0.4654
vn 0.2155 -0.9217 0.3225
vn 0.5450 0.1939 0.8157
vn 0.1116 -0.9796 0.1671
vn 0.5556 -0.0000 0.8315
vn 0.1116 0.9796 0.1671
vn 0.5450 -0.1939 0.8157
vn 0.2155 0.9217 0.3225
vn 0.5138 -0.3805 0.7689
vn 0.3110 0.8286 0.4654
vn 0.4630 -0.5528 0.6929
vn 0.3945 0.7041 0.5905
vn 0.3945 -0.7041 0.5905
vn 0.4630 0.5528 0.6929
vn 0.3539 -0.3805 0.8544
vn 0.1484 0.9217 0.3584
vn 0.2142 0.8286 0.5172
vn 0.3189 -0.5528 0.7699
vn 0.2718 0.7041 0.6561
vn 0.2718 -0.7041 0.6561
vn 0.3189 0.5528 0.7699
vn 0.2142 -0.8286 0.5172
vn 0.3539 0.3805 0.8544
vn 0.1484 -0.9217 0.3584
vn 0.3754 0.1939 0.9063
vn 0.0769 -0.9796 0.1857
vn 0.3827 -0.0000 0.9239
vn 0.0769 0.9796 0.1857
vn 0.3754 -0.1939 0.9063
vn 0.0757 -0.9217 0.3804
vn 0.1914 0.1939 0.9622
vn 0.0392 -0.9796 0.1971
vn 0.1951 -0.0000 0.9808
vn 0.0392 0.9796 0.1971
vn 0.1914 -0.1939 0.9622
vn 0.0757 0.9217 0.3804
vn 0.1804 -0.3805 0.9070
vn 0.1092 0.8286 0.5490
vn 0.1626 -0.5528 0.8173
vn 0.1385 0.7041 0.6965
vn 0.1385 -0.7041 0.6965
vn 0.1626 0.5528 0.8173
vn 0.1092 -0.8286 0.5490
vn 0.1804 0.3805 0.9070
vn -0.0000 0.8286 0.5598
vn -0.0000 -0.5528 0.8333
vn -0.0000 0.7041 0.7101
vn -0.0000 -0.7041 0.7101
vn -0.0000 0.5528 0.8333
vn -0.0000 -0.8286 0.5598
vn -0.0000 0.3805 0.9248
vn -0.0000 -0.9217 0.3879
vn -0.0000 0.1939 0.9810
vn -0.0000 -0.9796 0.2010
vn -0.0000 -0.0000 1.0000
vn -0.0000 0.9796 0.2010
vn -0.0000 -0.1939 0.9810
vn -0.0000 0.9217 0.3879
vn -0.0000 -0.3805 0.9248
vn -0.1804 0.3805 0.9070
vn -0.1914 0.1939 0.9622
vn -0.0392 -0.9796 0.1971
vn -0.1951 -0.0000 0.9808
vn -0.0392 0.9796 0.1971
vn -0.1914 -0.1939 0.9622
vn -0.0757 0.9217 0.3804
vn -0.1804 -0.3805 0.9070
vn -0.1092 0.8286 0.5490
vn -0.1626 -0.5528 0.8173
vn -0.1385 0.7041 0.6965
vn -0.1385 -0.7041 0.6965
vn -0.1626 0.5528 0.8173
vn -0.1092 -0.8286 0.5490
vn -0.0757 -0.9217 0.3804
vn -0.3539 -0.3805 0.8544
vn -0.3189 -0.5528 0.7699
vn -0.2142 0.8286 0.5172
vn -0.2718 0.7041 0.6561
vn -0.2718 -0.7041 0.6561
vn -0.3189 0.5528 0.7699
vn -0.2142 -0.8286 0.5172
vn -0.3539 0.3805 0.8544
vn -0.1484 -0.9217 0.3584
vn -0.3754 0.1939 0.9063
vn -0.0769 -0.9796 0.1857
vn -0.3827 -0.0000 0.9239
vn -0.0769 0.9796 0.1857
vn -0.3754 -0.1939 0.9063
vn -0.1484 0.9217 0.3584
vn -0.1116 -0.9796 0.1671
vn -0.5450 0.1939 0.8157
vn -0.5556 -0.0000 0.8315
vn -0.1116 0.9796 0.1671
vn -0.5450 -0.1939 0.8157
vn -0.2155 0.9217 0.3225
vn -0.5138 -0.3805 0.7689
vn -0.3110 0.8286 0.4654
vn -0.4630 -0.5528 0.6929
vn -0.3945 0.7041 0.5905
vn -0.3945 -0.7041 0.5905
vn -0.4630 0.5528 0.6929
vn -0.3110 -0.8286 0.4654
vn -0.5138 0.3805 0.7689
vn -0.2155 -0.9217 0.3225
vn -0.5893 -0.5528 0.5893
vn -0.5021 -0.7041 0.5021
vn -0.5893 0.5528 0.5893
vn -0.3958 -0.8286 0.3958
vn -0.6539 0.3805 0.6539
vn -0.2743 -0.9217 0.2743
vn -0.6937 0.1939 0.6937
vn -0.1421 -0.9796 0.1421
vn -0.7071 -0.0000 0.7071
vn -0.1421 0.9796 0.1421
vn -0.6937 -0.1939 0.6937
vn -0.2743 0.9217 0.2743
vn -0.6539 -0.3805 0.6539
vn -0.3958 0.8286 0.3958
vn -0.5021 0.7041 0.5021
vn -0.1671 0.9796 0.1116
vn -0.1671 -0.9796 0.1116
vn -0.8157 -0.1939 0.5450
vn -0.3225 0.9217 0.2155
vn -0.7689 -0.3805 0.5138
vn -0.4654 0.8286 0.3110
vn -0.6929 -0.5528 0.4630
vn -0.5905 0.7041 0.3945
vn -0.5905 -0.7041 0.3945
vn -0.6929 0.5528 0.4630
vn -0.4654 -0.8286 0.3110
vn -0.7689 0.3805 0.5138
vn -0.3225 -0.9217 0.2155
vn -0.8157 0.1939 0.5450
vn -0.8315 -0.0000 0.5556
vn -0.6561 0.7041 0.2718
vn -0.7699 0.5528 0.3189
vn -0.6561 -0.7041 0.2718
vn -0.5172 -0.8286 0.2142
vn -0.8544 0.3805 0.3539
vn -0.3584 -0.9217 0.1484
vn -0.9063 0.1939 0.3754
vn -0.1857 -0.9796 0.0769
vn -0.9239 -0.0000 0.3827
vn -0.1857 0.9796 0.0769
vn -0.9063 -0.1939 0.3754
vn -0.3584 0.9217 0.1484
vn -0.8544 -0.3805 0.3539
vn -0.5172 0.8286 0.2142
vn -0.7699 -0.5528 0.3189
vn -0.9622 -0.1939 0.1914
vn -0.1971 0.9796 0.0392
vn -0.3804 0.9217 0.0757
vn -0.9070 -0.3805 0.1804
vn -0.5490 0.8286 0.1092
vn -0.8173 -0.5528 0.1626
vn -0.6965 0.7041 0.1385
vn -0.6965 -0.7041 0.1385
vn -0.8173 0.5528 0.1626
vn -0.5490 -0.8286 0.1092
vn -0.9070 0.3805 0.1804
vn -0.3804 -0.9217 0.0757
vn -0.9622 0.1939 0.1914
vn -0.1971 -0.9796 0.0392
vn -0.9808 -0.0000 0.1951
vn -0.7101 -0.7041 -0.0000
vn -0.5598 -0.8286 -0.0000
vn -0.8333 0.5528 -0.0000
vn -0.9248 0.3805 -0.0000
vn -0.3879 -0.9217 -0.0000
vn -0.9810 0.1939 -0.0000
vn -0.2010 -0.9796 -0.0000
vn -1.0000 -0.0000 -0.0000
vn -0.2010 0.9796 -0.0000
vn -0.9810 -0.1939 -0.0000
vn -0.3879 0.9217 -0.0000
vn -0.9248 -0.3805 -0.0000
vn -0.5598 0.8286 -0.0000
vn -0.8333 -0.5528 -0.0000
vn -0.7101 0.7041 -0.0000
vn -0.1971 0.9796 -0.0392
vn -0.3804 0.9217 -0.0757
vn -0.9070 -0.3805 -0.1804
vn -0.5490 0.8286 -0.1092
vn -0.8173 -0.5528 -0.1626
vn -0.6965 0.7041 -0.1385
vn -0.6965 -0.7041 -0.1385
vn -0.8173 0.5528 -0.1626
vn -0.5490 -0.8286 -0.1092
vn -0.9070 0.3805 -0.1804
vn -0.3804 -0.9217 -0.0757
vn -0.9622 0.1939 -0.1914
vn -0.1971 -0.9796 -0.0392
vn -0.9808 -0.0000 -0.1951
vn -0.9622 -0.1939 -0.1914
vn -0.8544 0.3805 -0.3539
vn -0.5172 -0.8286 -0.2142
vn -0.3584 -0.9217 -0.1484
vn -0.9063 0.1939 -0.3754
vn -0.1857 -0.9796 -0.0769
vn -0.9239 -0.0000 -0.3827
vn -0.1857 0.9796 -0.0769
vn -0.9063 -0.1939 -0.3754
vn -0.3584 0.9217 -0.1484
vn -0.8544 -0.3805 -0.3539
vn -0.5172 0.8286 -0.2142
vn -0.7699 -0.5528 -0.3189
vn -0.6561 0.7041 -0.2718
vn -0.6561 -0.7041 -0.2718
vn -0.7699 0.5528 -0.3189
vn -0.8157 -0.1939 -0.5450
vn -0.7689 -0.3805 -0.5138
vn -0.4654 0.8286 -0.3110
vn -0.6929 -0.5528 -0.4630
vn -0.5905 0.7041 -0.3945
vn -0.5905 -0.7041 -0.3945
vn -0.6929 0.5528 -0.4630
vn -0.4654 -0.8286 -0.3110
vn -0.7689 0.3805 -0.5138
vn -0.3225 -0.9217 -0.2155
vn -0.8157 0.1939 -0.5450
vn -0.1671 -0.9796 -0.1116
vn -0.8315 -0.0000 -0.5556
vn -0.1671 0.9796 -0.1116
vn -0.3225 0.9217 -0.2155
vn -0.2743 -0.9217 -0.2743
vn -0.6937 0.1939 -0.6937
vn -0.1421 -0.9796 -0.1421
vn -0.7071 -0.0000 -0.7071
vn -0.1421 0.9796 -0.1421
vn -0.6937 -0.1939 -0.6937
vn -0.2743 0.9217 -0.2743
vn -0.6539 -0.3805 -0.6539
vn -0.3958 0.8286 -0.3958
vn -0.5893 -0.5528 -0.5893
vn -0.5021 0.7041 -0.5021
vn -0.5021 -0.7041 -0.5021
vn -0.5893 0.5528 -0.5893
vn -0.3958 -0.8286 -0.3958
vn -0.6539 0.3805 -0.6539
vn -0.5138 -0.3805 -0.7689
vn -0.4630 -0.5528 -0.6929
vn -0.3945 0.7041 -0.5905
vn -0.3945 -0.7041 -0.5905
vn -0.4630 0.5528 -0.6929
vn -0.3110 -0.8286 -0.4654
vn -0.5138 0.3805 -0.7689
vn -0.2155 -0.9217 -0.3225
vn -0.5450 0.1939 -0.8157
vn -0.1116 -0.9796 -0.1671
vn -0.5556 -0.0000 -0.8315
vn -0.1116 0.9796 -0.1671
vn -0.5450 -0.1939 -0.8157
vn -0.2155 0.9217 -0.3225
vn -0.3110 0.8286 -0.4654
vn -0.1484 -0.9217 -0.3584
vn -0.0769 -0.9796 -0.1857
vn -0.3754 0.1939 -0.9063
vn -0.3827 -0.0000 -0.9239
vn -0.0769 0.9796 -0.1857
vn -0.3754 -0.1939 -0.9063
vn -0.1484 0.9217 -0.3584
vn -0.3539 -0.3805 -0.8544
vn -0.2142 0.8286 -0.5172
vn -0.3189 -0.5528 -0.7699
vn -0.2718 0.7041 -0.6561
vn -0.2718 -0.7041 -0.6561
vn -0.3189 0.5528 -0.7699
vn -0.2142 -0.8286 -0.5172
vn -0.3539 0.3805 -0.8544
vn -0.1385 0.7041 -0.6965
vn -0.1385 -0.7041 -0.6965
vn -0.1626 0.5528 -0.8173
vn -0.1092 -0.8286 -0.5490
vn -0.1804 0.3805 -0.9070
vn -0.0757 -0.9217 -0.3804
vn -0.1914 0.1939 -0.9622
vn -0.0392 -0.9796 -0.1971
vn -0.1951 -0.0000 -0.9808
vn -0.0392 0.9796 -0.1971
vn -0.1914 -0.1939 -0.9622
vn -0.0757 0.9217 -0.3804
vn -0.1804 -0.3805 -0.9070
vn -0.1092 0.8286 -0.5490
vn -0.1626 -0.5528 -0.8173
vn -0.0000 -0.5922 -0.8058
vn 0.1572 -0.5922 -0.7903
vn 0.3084 -0.5922 -0.7444
vn 0.4477 -0.5922 -0.6700
vn 0.5698 -0.5922 -0.5698
vn 0.6700 -0.5922 -0.4477
vn 0.7444 -0.5922 -0.3084
vn 0.7903 -0.5922 -0.1572
vn 0.8058 -0.5922 -0.0000
vn 0.7903 -0.5922 0.1572
vn 0.7444 -0.5922 0.3084
vn 0.6700 -0.5922 0.4477
vn 0.5698 -0.5922 0.5698
vn 0.4477 -0.5922 0.6700
vn 0.3084 -0.5922 0.7444
vn 0.1572 -0.5922 0.7903
vn -0.0000 -0.5922 0.8058
vn -0.1572 -0.5922 0.7903
vn -0.3084 -0.5922 0.7444
vn -0.4477 -0.5922 0.6700
vn -0.5698 -0.5922 0.5698
vn -0.6700 -0.5922 0.4477
vn -0.7444 -0.5922 0.3084
vn -0.7903 -0.5922 0.1572
vn -0.8058 -0.5922 -0.0000
vn -0.7903 -0.5922 -0.1572
vn -0.7444 -0.5922 -0.3084
vn -0.6700 -0.5922 -0.4477
vn -0.5698 -0.5922 -0.5698
vn -0.4477 -0.5922 -0.6700
vn -0.3084 -0.5922 -0.7444
vn -0.1572 -0.5922 -0.7903
vn -0.5922 -0.0000 -0.8058
vn -0.5922 -0.1572 -0.7903
vn -0.5922 -0.3084 -0.7444
vn -0.5922 -0.4477 -0.6700
vn -0.5922 -0.5698 -0.5698
vn -0.5922 -0.6700 -0.4477
vn -0.5922 -0.7444 -0.3084
vn -0.5922 -0.7903 -0.1572
vn -0.5922 -0.8058 -0.0000
vn -0.5922 -0.7903 0.1572
vn -0.5922 -0.7444 0.3084
vn -0.5922 -0.6700 0.4477
vn -0.5922 -0.5698 0.5698
vn -0.5922 -0.4477 0.6700
vn -0.5922 -0.3084 0.7444
vn -0.5922 -0.1572 0.7903
vn -0.5922 -0.0000 0.8058
vn -0.5922 0.1572 0.7903
vn -0.5922 0.3084 0.7444
vn -0.5922 0.4477 0.6700
vn -0.5922 0.5698 0.5698
vn -0.5922 0.6700 0.4477
vn -0.5922 0.7444 0.3084
vn -0.5922 0.7903 0.1572
vn -0.5922 0.8058 -0.0000
vn -0.5922 0.7903 -0.1572
vn -0.5922 0.7444 -0.3084
vn -0.5922 0.6700 -0.4477
vn -0.5922 0.5698 -0.5698
vn -0.5922 0.4477 -0.6700
vn -0.5922 0.3084 -0.7444
vn -0.5922 0.1572 -0.7903
vn -0.0000 0.5922 -0.8058
vn -0.1572 0.5922 -0.7903
vn -0.3084 0.5922 -0.7444
vn -0.4477 0.5922 -0.6700
vn -0.5698 0.5922 -0.5698
vn -0.6700 0.5922 -0.4477
vn -0.7444 0.5922 -0.3084
vn -0.7903 0.5922 -0.1572
vn -0.8058 0.5922 -0.0000
vn -0.7903 0.5922 0.1572
vn -0.7444 0.5922 0.3084
vn -0.6700 0.5922 0.4477
vn -0.5698 0.5922 0.5698
vn -0.4477 0.5922 0.6700
vn -0.3084 0.5922 0.7444
vn -0.1572 0.5922 0.7903
vn -0.0000 0.5922 0.8058
vn 0.1572 0.5922 0.7903
vn 0.3084 0.5922 0.7444
vn 0.4477 0.5922 0.6700
vn 0.5698 0.5922 0.5698
vn 0.6700 0.5922 0.4477
vn 0.7444 0.5922 0.3084
vn 0.7903 0.5922 0.1572
vn 0.8058 0.5922 -0.0000
vn 0.7903 0.5922 -0.1572
vn 0.7444 0.5922 -0.3084
vn 0.6700 0.5922 -0.4477
vn 0.5698 0.5922 -0.5698
vn 0.4477 0.5922 -0.6700
vn 0.3084 0.5922 -0.7444
vn 0.1572 0.5922 -0.7903
vn 0.5922 -0.0000 -0.8058
vn 0.5922 0.1572 -0.7903
vn 0.5922 0.3084 -0.7444
vn 0.5922 0.4477 -0.6700
vn 0.5922 0.5698 -0.5698
vn 0.5922 0.6700 -0.4477
vn 0.5922 0.7444 -0.3084
vn 0.5922 0.7903 -0.1572
vn 0.5922 0.8058 -0.0000
vn 0.5922 0.7903 0.1572
vn 0.5922 0.7444 0.3084
vn 0.5922 0.6700 0.4477
vn 0.5922 0.5698 0.5698
vn 0.5922 0.4477 0.6700
vn 0.5922 0.3084 0.7444
vn 0.5922 0.1572 0.7903
vn 0.5922 -0.0000 0.8058
vn 0.5922 -0.1572 0.7903
vn 0.5922 -0.3084 0.7444
vn 0.5922 -0.4477 0.6700
vn 0.5922 -0.5698 0.5698
vn 0.5922 -0.6700 0.4477
vn 0.5922 -0.7444 0.3084
vn 0.5922 -0.7903 0.1572
vn 0.5922 -0.8058 -0.0000
vn 0.5922 -0.7903 -0.1572
vn 0.5922 -0.7444 -0.3084
vn 0.5922 -0.6700 -0.4477
vn 0.5922 -0.5698 -0.5698
vn 0.5922 -0.4477 -0.6700
vn 0.5922 -0.3084 -0.7444
vn 0.5922 -0.1572 -0.7903
vn -0.0000 0.8058 -0.5922
vn 0.1572 0.7903 -0.5922
vn 0.3084 0.7444 -0.5922
vn 0.4477 0.6700 -0.5922
vn 0.5698 0.5698 -0.5922
vn 0.6700 0.4477 -0.5922
vn 0.7444 0.3084 -0.5922
vn 0.7903 0.1572 -0.5922
vn 0.8058 -0.0000 -0.5922
vn 0.7903 -0.1572 -0.5922
vn 0.7444 -0.3084 -0.5922
vn 0.6700 -0.4477 -0.5922
vn 0.5698 -0.5698 -0.5922
vn 0.4477 -0.6700 -0.5922
vn 0.3084 -0.7444 -0.5922
vn 0.1572 -0.7903 -0.5922
vn -0.0000 -0.8058 -0.5922
vn -0.1572 -0.7903 -0.5922
vn -0.3084 -0.7444 -0.5922
vn -0.4477 -0.6700 -0.5922
vn -0.5698 -0.5698 -0.5922
vn -0.6700 -0.4477 -0.5922
vn -0.7444 -0.3084 -0.5922
vn -0.7903 -0.1572 -0.5922
vn -0.8058 -0.0000 -0.5922
vn -0.7903 0.1572 -0.5922
vn -0.7444 0.3084 -0.5922
vn -0.6700 0.4477 -0.5922
vn -0.5698 0.5698 -0.5922
vn -0.4477 0.6700 -0.5922
vn -0.3084 0.7444 -0.5922
vn -0.1572 0.7903 -0.5922
vn -0.0000 -0.8058 0.5922
vn 0.1572 -0.7903 0.5922
vn 0.3084 -0.7444 0.5922
vn 0.4477 -0.6700 0.5922
vn 0.5698 -0.5698 0.5922
vn 0.6700 -0.4477 0.5922
vn 0.7444 -0.3084 0.5922
vn 0.7903 -0.1572 0.5922
vn 0.8058 -0.0000 0.5922
vn 0.7903 0.1572 0.5922
vn 0.7444 0.3084 0.5922
vn 0.6700 0.4477 0.5922
vn 0.5698 0.5698 0.5922
vn 0.4477 0.6700 0.5922
vn 0.3084 0.7444 0.5922
vn 0.1572 0.7903 0.5922
vn -0.0000 0.8058 0.5922
vn -0.1572 0.7903 0.5922
vn -0.3084 0.7444 0.5922
vn -0.4477 0.6700 0.5922
vn -0.5698 0.5698 0.5922
vn -0.6700 0.4477 0.5922
vn -0.7444 0.3084 0.5922
vn -0.7903 0.1572 0.5922
vn -0.8058 -0.0000 0.5922
vn -0.7903 -0.1572 0.5922
vn -0.7444 -0.3084 0.5922
vn -0.6700 -0.4477 0.5922
vn -0.5698 -0.5698 0.5922
vn -0.4477 -0.6700 0.5922
vn -0.3084 -0.7444 0.5922
vn -0.1572 -0.7903 0.5922
vt 0.750000 0.125000
vt 0.718750 0.062500
vt 0.750000 0.062500
vt 0.750000 0.562500
vt 0.718750 0.500000
vt 0.750000 0.500000
vt 0.750000 0.937500
vt 0.734375 1.000000
vt 0.718750 0.937500
vt 0.734375 0.000000
vt 0.750000 0.437500
vt 0.718750 0.437500
vt 0.750000 0.875000
vt 0.718750 0.875000
vt 0.718750 0.375000
vt 0.750000 0.375000
vt 0.718750 0.812500
vt 0.750000 0.812500
vt 0.750000 0.312500
vt 0.718750 0.312500
vt 0.718750 0.750000
vt 0.750000 0.750000
vt 0.718750 0.250000
vt 0.750000 0.250000
vt 0.750000 0.687500
vt 0.718750 0.687500
vt 0.718750 0.187500
vt 0.750000 0.187500
vt 0.718750 0.625000
vt 0.750000 0.625000
vt 0.718750 0.125000
vt 0.718750 0.562500
vt 0.687500 0.187500
vt 0.687500 0.125000
vt 0.687500 0.625000
vt 0.687500 0.562500
vt 0.687500 0.062500
vt 0.687500 0.500000
vt 0.703125 1.000000
vt 0.687500 0.937500
vt 0.703125 0.000000
vt 0.687500 0.437500
vt 0.687500 0.875000
vt 0.687500 0.375000
vt 0.687500 0.812500
vt 0.687500 0.312500
vt 0.687500 0.750000
vt 0.687500 0.250000
vt 0.687500 0.687500
vt 0.656250 0.812500
vt 0.656250 0.375000
vt 0.656250 0.312500
vt 0.656250 0.750000
vt 0.656250 0.250000
vt 0.656250 0.687500
vt 0.656250 0.187500
vt 0.656250 0.625000
vt 0.656250 0.125000
vt 0.656250 0.562500
vt 0.656250 0.062500
vt 0.656250 0.500000
vt 0.671875 1.000000
vt 0.656250 0.937500
vt 0.671875 0.000000
vt 0.656250 0.437500
vt 0.656250 0.875000
vt 0.625000 0.562500
vt 0.625000 0.125000
vt 0.625000 0.062500
vt 0.625000 0.500000
vt 0.640625 1.000000
vt 0.625000 0.937500
vt 0.640625 0.000000
vt 0.625000 0.437500
vt 0.625000 0.875000
vt 0.625000 0.375000
vt 0.625000 0.812500
vt 0.625000 0.312500
vt 0.625000 0.750000
vt 0.625000 0.250000
vt 0.625000 0.687500
vt 0.625000 0.187500
vt 0.625000 0.625000
vt 0.593750 0.375000
vt 0.593750 0.312500
vt 0.593750 0.750000
vt 0.593750 0.250000
vt 0.593750 0.687500
vt 0.593750 0.187500
vt 0.593750 0.625000
vt 0.593750 0.125000
vt 0.593750 0.562500
vt 0.593750 0.062500
vt 0.593750 0.500000
vt 0.609375 1.000000
vt 0.593750 0.937500
vt 0.609375 0.000000
vt 0.593750 0.437500
vt 0.593750 0.875000
vt 0.593750 0.812500
vt 0.562500 0.125000
vt 0.562500 0.062500
vt 0.562500 0.562500
vt 0.562500 0.500000
vt 0.578125 1.000000
vt 0.562500 0.937500
vt 0.578125 0.000000
vt 0.562500 0.437500
vt 0.562500 0.875000
vt 0.562500 0.375000
vt 0.562500 0.812500
vt 0.562500 0.312500
vt 0.562500 0.750000
vt 0.562500 0.250000
vt 0.562500 0.687500
vt 0.562500 0.187500
vt 0.562500 0.625000
vt 0.531250 0.750000
vt 0.531250 0.250000
vt 0.531250 0.687500
vt 0.531250 0.187500
vt 0.531250 0.625000
vt 0.531250 0.125000
vt 0.531250 0.562500
vt 0.531250 0.062500
vt 0.531250 0.500000
vt 0.546875 1.000000
vt 0.531250 0.937500
vt 0.546875 0.000000
vt 0.531250 0.437500
vt 0.531250 0.875000
vt 0.531250 0.375000
vt 0.531250 0.812500
vt 0.531250 0.312500
vt 0.500000 0.562500
vt 0.500000 0.500000
vt 0.515625 1.000000
vt 0.500000 0.937500
vt 0.515625 0.000000
vt 0.500000 0.062500
vt 0.500000 0.437500
vt 0.500000 0.875000
vt 0.500000 0.375000
vt 0.500000 0.812500
vt 0.500000 0.312500
vt 0.500000 0.750000
vt 0.500000 0.250000
vt 0.500000 0.687500
vt 0.500000 0.187500
vt 0.500000 0.625000
vt 0.500000 0.125000
vt 0.468750 0.250000
vt 0.468750 0.750000
vt 0.468750 0.687500
vt 0.468750 0.187500
vt 0.468750 0.625000
vt 0.468750 0.125000
vt 0.468750 0.562500
vt 0.468750 0.062500
vt 0.468750 0.500000
vt 0.484375 1.000000
vt 0.468750 0.937500
vt 0.484375 0.000000
vt 0.468750 0.437500
vt 0.468750 0.875000
vt 0.468750 0.375000
vt 0.468750 0.812500
vt 0.468750 0.312500
vt 0.453125 0.000000
vt 0.437500 0.062500
vt 0.437500 0.500000
vt 0.437500 0.437500
vt 0.437500 0.875000
vt 0.437500 0.375000
vt 0.437500 0.812500
vt 0.437500 0.312500
vt 0.437500 0.750000
vt 0.437500 0.250000
vt 0.437500 0.687500
vt 0.437500 0.187500
vt 0.437500 0.625000
vt 0.437500 0.125000
vt 0.437500 0.562500
vt 0.453125 1.000000
vt 0.437500 0.937500
vt 0.406250 0.187500
vt 0.406250 0.625000
vt 0.406250 0.125000
vt 0.406250 0.562500
vt 0.406250 0.062500
vt 0.406250 0.500000
vt 0.421875 1.000000
vt 0.406250 0.937500
vt 0.421875 0.000000
vt 0.406250 0.437500
vt 0.406250 0.875000
vt 0.406250 0.375000
vt 0.406250 0.812500
vt 0.406250 0.312500
vt 0.406250 0.750000
vt 0.406250 0.250000
vt 0.406250 0.687500
vt 0.375000 0.875000
vt 0.375000 0.437500
vt 0.375000 0.375000
vt 0.375000 0.812500
vt 0.375000 0.312500
vt 0.375000 0.750000
vt 0.375000 0.250000
vt 0.375000 0.687500
vt 0.375000 0.187500
vt 0.375000 0.625000
vt 0.375000 0.125000
vt 0.375000 0.562500
vt 0.375000 0.062500
vt 0.375000 0.500000
vt 0.390625 1.000000
vt 0.375000 0.937500
vt 0.390625 0.000000
vt 0.343750 0.625000
vt 0.343750 0.187500
vt 0.343750 0.125000
vt 0.343750 0.562500
vt 0.343750 0.062500
vt 0.343750 0.500000
vt 0.359375 1.000000
vt 0.343750 0.937500
vt 0.359375 0.000000
vt 0.343750 0.437500
vt 0.343750 0.875000
vt 0.343750 0.375000
vt 0.343750 0.812500
vt 0.343750 0.312500
vt 0.343750 0.750000
vt 0.343750 0.250000
vt 0.343750 0.687500
vt 0.312500 0.375000
vt 0.312500 0.875000
vt 0.312500 0.812500
vt 0.312500 0.312500
vt 0.312500 0.750000
vt 0.312500 0.250000
vt 0.312500 0.687500
vt 0.312500 0.187500
vt 0.312500 0.625000
vt 0.312500 0.125000
vt 0.312500 0.562500
vt 0.312500 0.062500
vt 0.312500 0.500000
vt 0.328125 1.000000
vt 0.312500 0.937500
vt 0.328125 0.000000
vt 0.312500 0.437500
vt 0.281250 0.125000
vt 0.281250 0.562500
vt 0.281250 0.062500
vt 0.281250 0.500000
vt 0.296875 1.000000
vt 0.281250 0.937500
vt 0.296875 0.000000
vt 0.281250 0.437500
vt 0.281250 0.875000
vt 0.281250 0.375000
vt 0.281250 0.812500
vt 0.281250 0.312500
vt 0.281250 0.750000
vt 0.281250 0.250000
vt 0.281250 0.687500
vt 0.281250 0.187500
vt 0.281250 0.625000
vt 0.250000 0.812500
vt 0.250000 0.312500
vt 0.250000 0.750000
vt 0.250000 0.250000
vt 0.250000 0.687500
vt 0.250000 0.187500
vt 0.250000 0.625000
vt 0.250000 0.125000
vt 0.250000 0.562500
vt 0.250000 0.062500
vt 0.250000 0.500000
vt 0.265625 1.000000
vt 0.250000 0.937500
vt 0.265625 0.000000
vt 0.250000 0.437500
vt 0.250000 0.875000
vt 0.250000 0.375000
vt 0.218750 0.625000
vt 0.218750 0.562500
vt 0.218750 0.062500
vt 0.218750 0.500000
vt 0.234375 1.000000
vt 0.218750 0.937500
vt 0.234375 0.000000
vt 0.218750 0.437500
vt 0.218750 0.875000
vt 0.218750 0.375000
vt 0.218750 0.812500
vt 0.218750 0.312500
vt 0.218750 0.750000
vt 0.218750 0.250000
vt 0.218750 0.687500
vt 0.218750 0.187500
vt 0.218750 0.125000
vt 0.187500 0.375000
vt 0.187500 0.312500
vt 0.187500 0.812500
vt 0.187500 0.750000
vt 0.187500 0.250000
vt 0.187500 0.687500
vt 0.187500 0.187500
vt 0.187500 0.625000
vt 0.187500 0.125000
vt 0.187500 0.562500
vt 0.187500 0.062500
vt 0.187500 0.500000
vt 0.203125 1.000000
vt 0.187500 0.937500
vt 0.203125 0.000000
vt 0.187500 0.437500
vt 0.187500 0.875000
vt 0.156250 0.062500
vt 0.156250 0.562500
vt 0.156250 0.500000
vt 0.171875 1.000000
vt 0.156250 0.937500
vt 0.171875 0.000000
vt 0.156250 0.437500
vt 0.156250 0.875000
vt 0.156250 0.375000
vt 0.156250 0.812500
vt 0.156250 0.312500
vt 0.156250 0.750000
vt 0.156250 0.250000
vt 0.156250 0.687500
vt 0.156250 0.187500
vt 0.156250 0.625000
vt 0.156250 0.125000
vt 0.125000 0.312500
vt 0.125000 0.250000
vt 0.125000 0.687500
vt 0.125000 0.187500
vt 0.125000 0.625000
vt 0.125000 0.125000
vt 0.125000 0.562500
vt 0.125000 0.062500
vt 0.125000 0.500000
vt 0.140625 1.000000
vt 0.125000 0.937500
vt 0.140625 0.000000
vt 0.125000 0.437500
vt 0.125000 0.875000
vt 0.125000 0.375000
vt 0.125000 0.812500
vt 0.125000 0.750000
vt 0.109375 1.000000
vt 0.093750 0.937500
vt 0.109375 0.000000
vt 0.093750 0.062500
vt 0.093750 0.437500
vt 0.093750 0.875000
vt 0.093750 0.375000
vt 0.093750 0.812500
vt 0.093750 0.312500
vt 0.093750 0.750000
vt 0.093750 0.250000
vt 0.093750 0.687500
vt 0.093750 0.187500
vt 0.093750 0.625000
vt 0.093750 0.125000
vt 0.093750 0.562500
vt 0.093750 0.500000
vt 0.062500 0.750000
vt 0.062500 0.687500
vt 0.062500 0.250000
vt 0.062500 0.187500
vt 0.062500 0.625000
vt 0.062500 0.125000
vt 0.062500 0.562500
vt 0.062500 0.062500
vt 0.062500 0.500000
vt 0.078125 1.000000
vt 0.062500 0.937500
vt 0.078125 0.000000
vt 0.062500 0.437500
vt 0.062500 0.875000
vt 0.062500 0.375000
vt 0.062500 0.812500
vt 0.062500 0.312500
vt 0.031250 0.437500
vt 0.031250 0.937500
vt 0.031250 0.875000
vt 0.031250 0.375000
vt 0.031250 0.812500
vt 0.031250 0.312500
vt 0.031250 0.750000
vt 0.031250 0.250000
vt 0.031250 0.687500
vt 0.031250 0.187500
vt 0.031250 0.625000
vt 0.031250 0.125000
vt 0.031250 0.562500
vt 0.031250 0.062500
vt 0.031250 0.500000
vt 0.046875 1.000000
vt 0.046875 0.000000
vt 0.000000 0.250000
vt 0.000000 0.187500
vt 0.000000 0.687500
vt 0.000000 0.625000
vt 0.000000 0.125000
vt 0.000000 0.562500
vt 0.000000 0.062500
vt 0.000000 0.500000
vt 0.015625 1.000000
vt 0.000000 0.937500
vt 0.015625 0.000000
vt 0.000000 0.437500
vt 0.000000 0.875000
vt 0.000000 0.375000
vt 0.000000 0.812500
vt 0.000000 0.312500
vt 0.000000 0.750000
vt 1.000000 0.875000
vt 0.968750 0.937500
vt 0.968750 0.875000
vt 1.000000 0.437500
vt 0.968750 0.375000
vt 1.000000 0.375000
vt 1.000000 0.812500
vt 0.968750 0.812500
vt 1.000000 0.312500
vt 0.968750 0.312500
vt 1.000000 0.750000
vt 0.968750 0.750000
vt 0.968750 0.250000
vt 1.000000 0.250000
vt 1.000000 0.687500
vt 0.968750 0.687500
vt 0.968750 0.187500
vt 1.000000 0.187500
vt 0.968750 0.625000
vt 1.000000 0.625000
vt 0.968750 0.125000
vt 1.000000 0.125000
vt 1.000000 0.562500
vt 0.968750 0.562500
vt 0.968750 0.062500
vt 1.000000 0.062500
vt 0.968750 0.500000
vt 1.000000 0.500000
vt 1.000000 0.937500
vt 0.984375 1.000000
vt 0.984375 0.000000
vt 0.968750 0.437500
vt 0.937500 0.625000
vt 0.937500 0.187500
vt 0.937500 0.125000
vt 0.937500 0.562500
vt 0.937500 0.062500
vt 0.937500 0.500000
vt 0.953125 1.000000
vt 0.937500 0.937500
vt 0.953125 0.000000
vt 0.937500 0.437500
vt 0.937500 0.875000
vt 0.937500 0.375000
vt 0.937500 0.812500
vt 0.937500 0.312500
vt 0.937500 0.750000
vt 0.937500 0.250000
vt 0.937500 0.687500
vt 0.906250 0.437500
vt 0.906250 0.375000
vt 0.906250 0.812500
vt 0.906250 0.312500
vt 0.906250 0.750000
vt 0.906250 0.250000
vt 0.906250 0.687500
vt 0.906250 0.187500
vt 0.906250 0.625000
vt 0.906250 0.125000
vt 0.906250 0.562500
vt 0.906250 0.062500
vt 0.906250 0.500000
vt 0.921875 1.000000
vt 0.906250 0.937500
vt 0.921875 0.000000
vt 0.906250 0.875000
vt 0.875000 0.125000
vt 0.875000 0.562500
vt 0.875000 0.062500
vt 0.875000 0.500000
vt 0.890625 1.000000
vt 0.875000 0.937500
vt 0.890625 0.000000
vt 0.875000 0.437500
vt 0.875000 0.875000
vt 0.875000 0.375000
vt 0.875000 0.812500
vt 0.875000 0.312500
vt 0.875000 0.750000
vt 0.875000 0.250000
vt 0.875000 0.687500
vt 0.875000 0.187500
vt 0.875000 0.625000
vt 0.843750 0.375000
vt 0.843750 0.312500
vt 0.843750 0.750000
vt 0.843750 0.250000
vt 0.843750 0.687500
vt 0.843750 0.187500
vt 0.843750 0.625000
vt 0.843750 0.125000
vt 0.843750 0.562500
vt 0.843750 0.062500
vt 0.843750 0.500000
vt 0.859375 1.000000
vt 0.843750 0.937500
vt 0.859375 0.000000
vt 0.843750 0.437500
vt 0.843750 0.875000
vt 0.843750 0.812500
vt 0.812500 0.125000
vt 0.812500 0.062500
vt 0.812500 0.562500
vt 0.812500 0.500000
vt 0.828125 1.000000
vt 0.812500 0.937500
vt 0.828125 0.000000
vt 0.812500 0.437500
vt 0.812500 0.875000
vt 0.812500 0.375000
vt 0.812500 0.812500
vt 0.812500 0.312500
vt 0.812500 0.750000
vt 0.812500 0.250000
vt 0.812500 0.687500
vt 0.812500 0.187500
vt 0.812500 0.625000
vt 0.781250 0.750000
vt 0.781250 0.250000
vt 0.781250 0.687500
vt 0.781250 0.187500
vt 0.781250 0.625000
vt 0.781250 0.125000
vt 0.781250 0.562500
vt 0.781250 0.062500
vt 0.781250 0.500000
vt 0.796875 1.000000
vt 0.781250 0.937500
vt 0.796875 0.000000
vt 0.781250 0.437500
vt 0.781250 0.875000
vt 0.781250 0.375000
vt 0.781250 0.812500
vt 0.781250 0.312500
vt 0.765625 1.000000
vt 0.765625 0.000000
vt 0.250000 0.490000
vt 0.296822 0.485388
vt 0.341844 0.471731
vt 0.383337 0.449553
vt 0.419706 0.419706
vt 0.449553 0.383337
vt 0.471731 0.341844
vt 0.485388 0.296822
vt 0.490000 0.250000
vt 0.485388 0.203178
vt 0.471731 0.158156
vt 0.449553 0.116663
vt 0.419706 0.080294
vt 0.383337 0.050447
vt 0.341844 0.028269
vt 0.296822 0.014612
vt 0.250000 0.010000
vt 0.203178 0.014612
vt 0.158156 0.028269
vt 0.116663 0.050447
vt 0.080294 0.080294
vt 0.050447 0.116663
vt 0.028269 0.158156
vt 0.014612 0.203178
vt 0.010000 0.250000
vt 0.014612 0.296822
vt 0.028269 0.341844
vt 0.050447 0.383337
vt 0.080294 0.419706
vt 0.116663 0.449553
vt 0.158156 0.471731
vt 0.796822 0.014612
vt 0.514612 0.203178
vt 0.703178 0.485388
vt 0.203178 0.485388
vt 0.750000 0.490000
vt 0.883337 0.449553
vt 0.796822 0.485388
vt 0.841844 0.471731
vt 0.919706 0.419706
vt 0.985388 0.296822
vt 0.949553 0.383337
vt 0.971731 0.341844
vt 0.990000 0.250000
vt 0.949553 0.116663
vt 0.985388 0.203178
vt 0.971731 0.158156
vt 0.919706 0.080294
vt 0.883337 0.050447
vt 0.841844 0.028269
vt 0.750000 0.010000
vt 0.616663 0.050447
vt 0.703178 0.014612
vt 0.658156 0.028269
vt 0.580294 0.080294
vt 0.550447 0.116663
vt 0.528269 0.158156
vt 0.510000 0.250000
vt 0.550447 0.383337
vt 0.514612 0.296822
vt 0.528269 0.341844
vt 0.580294 0.419706
vt 0.616663 0.449553
vt 0.658156 0.471731
s 1
usemtl マテリアル
f 481/1/1 23/2/2 482/3/3
f 4/4/4 16/5/5 5/6/6
f 474/7/7 1/8/8 9/9/9
f 8/10/10 482/3/3 23/2/2
f 6/11/11 16/5/5 17/12/12
f 475/13/13 9/9/9 10/14/14
f 6/11/11 18/15/15 478/16/16
f 475/13/13 11/17/17 2/18/18
f 7/19/19 18/15/15 19/20/20
f 2/18/18 12/21/21 476/22/22
f 7/19/19 20/23/23 479/24/24
f 3/25/25 12/21/21 13/26/26
f 479/24/24 21/27/27 480/28/28
f 3/25/25 14/29/29 477/30/30
f 480/28/28 22/31/31 481/1/1
f 4/4/4 14/29/29 15/32/32
f 22/31/31 36/33/33 37/34/34
f 15/32/32 29/35/35 30/36/36
f 23/2/2 37/34/34 38/37/37
f 15/32/32 31/38/38 16/5/5
f 9/9/9 1/39/8 24/40/39
f 8/41/10 23/2/2 38/37/37
f 17/12/12 31/38/38 32/42/40
f 9/9/9 25/43/41 10/14/14
f 17/12/12 33/44/42 18/15/15
f 10/14/14 26/45/43 11/17/17
f 19/20/20 33/44/42 34/46/44
f 12/21/21 26/45/43 27/47/45
f 19/20/20 35/48/46 20/23/23
f 13/26/26 27/47/45 28/49/47
f 20/23/23 36/33/33 21/27/27
f 13/26/26 29/35/35 14/29/29
f 25/43/41 41/50/48 26/45/43
f 34/46/44 48/51/49 49/52/50
f 27/47/45 41/50/48 42/53/51
f 35/48/46 49/52/50 50/54/52
f 27/47/45 43/55/53 28/49/47
f 35/48/46 51/56/54 36/33/33
f 28/49/47 44/57/55 29/35/35
f 37/34/34 51/56/54 52/58/56
f 30/36/36 44/57/55 45/59/57
f 37/34/34 53/60/58 38/37/37
f 31/38/38 45/59/57 46/61/59
f 24/40/39 1/62/8 39/63/60
f 8/64/10 38/37/37 53/60/58
f 31/38/38 47/65/61 32/42/40
f 25/43/41 39/63/60 40/66/62
f 32/42/40 48/51/49 33/44/42
f 44/57/55 60/67/63 45/59/57
f 53/60/58 67/68/64 68/69/65
f 46/61/59 60/67/63 61/70/66
f 39/63/60 1/71/8 54/72/67
f 8/73/10 53/60/58 68/69/65
f 46/61/59 62/74/68 47/65/61
f 39/63/60 55/75/69 40/66/62
f 48/51/49 62/74/68 63/76/70
f 41/50/48 55/75/69 56/77/71
f 48/51/49 64/78/72 49/52/50
f 42/53/51 56/77/71 57/79/73
f 50/54/52 64/78/72 65/80/74
f 42/53/51 58/81/75 43/55/53
f 50/54/52 66/82/76 51/56/54
f 44/57/55 58/81/75 59/83/77
f 51/56/54 67/68/64 52/58/56
f 64/78/72 78/84/78 79/85/79
f 56/77/71 72/86/80 57/79/73
f 64/78/72 80/87/81 65/80/74
f 58/81/75 72/86/80 73/88/82
f 66/82/76 80/87/81 81/89/83
f 58/81/75 74/90/84 59/83/77
f 67/68/64 81/89/83 82/91/85
f 60/67/63 74/90/84 75/92/86
f 67/68/64 83/93/87 68/69/65
f 61/70/66 75/92/86 76/94/88
f 54/72/67 1/95/8 69/96/89
f 8/97/10 68/69/65 83/93/87
f 61/70/66 77/98/90 62/74/68
f 55/75/69 69/96/89 70/99/91
f 62/74/68 78/84/78 63/76/70
f 55/75/69 71/100/92 56/77/71
f 83/93/87 97/101/93 98/102/94
f 76/94/88 90/103/95 91/104/96
f 69/96/89 1/105/8 84/106/97
f 8/107/10 83/93/87 98/102/94
f 76/94/88 92/108/98 77/98/90
f 69/96/89 85/109/99 70/99/91
f 78/84/78 92/108/98 93/110/100
f 71/100/92 85/109/99 86/111/101
f 79/85/79 93/110/100 94/112/102
f 71/100/92 87/113/103 72/86/80
f 79/85/79 95/114/104 80/87/81
f 73/88/82 87/113/103 88/115/105
f 81/89/83 95/114/104 96/116/106
f 73/88/82 89/117/107 74/90/84
f 81/89/83 97/101/93 82/91/85
f 74/90/84 90/103/95 75/92/86
f 86/111/101 102/118/108 87/113/103
f 94/112/102 110/119/109 95/114/104
f 88/115/105 102/118/108 103/120/110
f 96/116/106 110/119/109 111/121/111
f 89/117/107 103/120/110 104/122/112
f 96/116/106 112/123/113 97/101/93
f 89/117/107 105/124/114 90/103/95
f 97/101/93 113/125/115 98/102/94
f 91/104/96 105/124/114 106/126/116
f 84/106/97 1/127/8 99/128/117
f 8/129/10 98/102/94 113/125/115
f 91/104/96 107/130/118 92/108/98
f 85/109/99 99/128/117 100/131/119
f 93/110/100 107/130/118 108/132/120
f 86/111/101 100/131/119 101/133/121
f 93/110/100 109/134/122 94/112/102
f 106/126/116 120/135/123 121/136/124
f 99/128/117 1/137/8 114/138/125
f 8/139/10 113/125/115 128/140/126
f 106/126/116 122/141/127 107/130/118
f 99/128/117 115/142/128 100/131/119
f 108/132/120 122/141/127 123/143/129
f 101/133/121 115/142/128 116/144/130
f 108/132/120 124/145/131 109/134/122
f 102/118/108 116/144/130 117/146/132
f 110/119/109 124/145/131 125/147/133
f 102/118/108 118/148/134 103/120/110
f 110/119/109 126/149/135 111/121/111
f 104/122/112 118/148/134 119/150/136
f 111/121/111 127/151/137 112/123/113
f 104/122/112 120/135/123 105/124/114
f 113/125/115 127/151/137 128/140/126
f 124/145/131 140/152/138 125/147/133
f 118/148/134 132/153/139 133/154/140
f 126/149/135 140/152/138 141/155/141
f 118/148/134 134/156/142 119/150/136
f 127/151/137 141/155/141 142/157/143
f 120/135/123 134/156/142 135/158/144
f 127/151/137 143/159/145 128/140/126
f 120/135/123 136/160/146 121/136/124
f 114/138/125 1/161/8 129/162/147
f 8/163/10 128/140/126 143/159/145
f 122/141/127 136/160/146 137/164/148
f 115/142/128 129/162/147 130/165/149
f 122/141/127 138/166/150 123/143/129
f 115/142/128 131/167/151 116/144/130
f 124/145/131 138/166/150 139/168/152
f 116/144/130 132/153/139 117/146/132
f 8/169/10 143/159/145 158/170/153
f 137/164/148 151/171/154 152/172/155
f 129/162/147 145/173/156 130/165/149
f 137/164/148 153/174/157 138/166/150
f 130/165/149 146/175/158 131/167/151
f 139/168/152 153/174/157 154/176/159
f 132/153/139 146/175/158 147/177/160
f 139/168/152 155/178/161 140/152/138
f 133/154/140 147/177/160 148/179/162
f 140/152/138 156/180/163 141/155/141
f 133/154/140 149/181/164 134/156/142
f 142/157/143 156/180/163 157/182/165
f 135/158/144 149/181/164 150/183/166
f 143/159/145 157/182/165 158/170/153
f 135/158/144 151/171/154 136/160/146
f 129/162/147 1/184/8 144/185/167
f 155/178/161 171/186/168 156/180/163
f 148/179/162 164/187/169 149/181/164
f 157/182/165 171/186/168 172/188/170
f 150/183/166 164/187/169 165/189/171
f 157/182/165 173/190/172 158/170/153
f 151/171/154 165/189/171 166/191/173
f 144/185/167 1/192/8 159/193/174
f 8/194/10 158/170/153 173/190/172
f 151/171/154 167/195/175 152/172/155
f 145/173/156 159/193/174 160/196/176
f 152/172/155 168/197/177 153/174/157
f 145/173/156 161/198/178 146/175/158
f 154/176/159 168/197/177 169/199/179
f 147/177/160 161/198/178 162/200/180
f 155/178/161 169/199/179 170/201/181
f 147/177/160 163/202/182 148/179/162
f 159/193/174 175/203/183 160/196/176
f 168/197/177 182/204/184 183/205/185
f 161/198/178 175/203/183 176/206/186
f 168/197/177 184/207/187 169/199/179
f 162/200/180 176/206/186 177/208/188
f 170/201/181 184/207/187 185/209/189
f 162/200/180 178/210/190 163/202/182
f 170/201/181 186/211/191 171/186/168
f 164/187/169 178/210/190 179/212/192
f 171/186/168 187/213/193 172/188/170
f 164/187/169 180/214/194 165/189/171
f 173/190/172 187/213/193 188/215/195
f 166/191/173 180/214/194 181/216/196
f 159/193/174 1/217/8 174/218/197
f 8/219/10 173/190/172 188/215/195
f 166/191/173 182/204/184 167/195/175
f 178/210/190 194/220/198 179/212/192
f 187/213/193 201/221/199 202/222/200
f 180/214/194 194/220/198 195/223/201
f 187/213/193 203/224/202 188/215/195
f 181/216/196 195/223/201 196/225/203
f 174/218/197 1/226/8 189/227/204
f 8/228/10 188/215/195 203/224/202
f 181/216/196 197/229/205 182/204/184
f 175/203/183 189/227/204 190/230/206
f 182/204/184 198/231/207 183/205/185
f 175/203/183 191/232/208 176/206/186
f 184/207/187 198/231/207 199/233/209
f 176/206/186 192/234/210 177/208/188
f 184/207/187 200/235/211 185/209/189
f 178/210/190 192/234/210 193/236/212
f 186/211/191 200/235/211 201/221/199
f 197/229/205 213/237/213 198/231/207
f 191/232/208 205/238/214 206/239/215
f 199/233/209 213/237/213 214/240/216
f 191/232/208 207/241/217 192/234/210
f 199/233/209 215/242/218 200/235/211
f 193/236/212 207/241/217 208/243/219
f 201/221/199 215/242/218 216/244/220
f 193/236/212 209/245/221 194/220/198
f 201/221/199 217/246/222 202/222/200
f 195/223/201 209/245/221 210/247/223
f 203/224/202 217/246/222 218/248/224
f 196/225/203 210/247/223 211/249/225
f 189/227/204 1/250/8 204/251/226
f 8/252/10 203/224/202 218/248/224
f 196/225/203 212/253/227 197/229/205
f 189/227/204 205/238/214 190/230/206
f 216/244/220 232/254/228 217/246/222
f 209/245/221 225/255/229 210/247/223
f 217/246/222 233/256/230 218/248/224
f 211/249/225 225/255/229 226/257/231
f 204/251/226 1/258/8 219/259/232
f 8/260/10 218/248/224 233/256/230
f 211/249/225 227/261/233 212/253/227
f 205/238/214 219/259/232 220/262/234
f 213/237/213 227/261/233 228/263/235
f 206/239/215 220/262/234 221/264/236
f 213/237/213 229/265/237 214/240/216
f 206/239/215 222/266/238 207/241/217
f 214/240/216 230/267/239 215/242/218
f 208/243/219 222/266/238 223/268/240
f 216/244/220 230/267/239 231/269/241
f 209/245/221 223/268/240 224/270/242
f 220/262/234 236/271/243 221/264/236
f 228/263/235 244/272/244 229/265/237
f 221/264/236 237/273/245 222/266/238
f 230/267/239 244/272/244 245/274/246
f 222/266/238 238/275/247 223/268/240
f 231/269/241 245/274/246 246/276/248
f 224/270/242 238/275/247 239/277/249
f 232/254/228 246/276/248 247/278/250
f 224/270/242 240/279/251 225/255/229
f 233/256/230 247/278/250 248/280/252
f 226/257/231 240/279/251 241/281/253
f 219/259/232 1/282/8 234/283/254
f 8/284/10 233/256/230 248/280/252
f 226/257/231 242/285/255 227/261/233
f 219/259/232 235/286/256 220/262/234
f 228/263/235 242/285/255 243/287/257
f 240/279/251 254/288/258 255/289/259
f 247/278/250 263/290/260 248/280/252
f 240/279/251 256/291/261 241/281/253
f 234/283/254 1/292/8 249/293/262
f 8/294/10 248/280/252 263/290/260
f 242/285/255 256/291/261 257/295/263
f 235/286/256 249/293/262 250/296/264
f 242/285/255 258/297/265 243/287/257
f 236/271/243 250/296/264 251/298/266
f 244/272/244 258/297/265 259/299/267
f 237/273/245 251/298/266 252/300/268
f 244/272/244 260/301/269 245/274/246
f 238/275/247 252/300/268 253/302/270
f 245/274/246 261/303/271 246/276/248
f 238/275/247 254/288/258 239/277/249
f 246/276/248 262/304/272 247/278/250
f 259/299/267 273/305/273 274/306/274
f 252/300/268 266/307/275 267/308/276
f 259/299/267 275/309/277 260/301/269
f 253/302/270 267/308/276 268/310/278
f 260/301/269 276/311/279 261/303/271
f 253/302/270 269/312/280 254/288/258
f 262/304/272 276/311/279 277/313/281
f 255/289/259 269/312/280 270/314/282
f 263/290/260 277/313/281 278/315/283
f 255/289/259 271/316/284 256/291/261
f 249/293/262 1/317/8 264/318/285
f 8/319/10 263/290/260 278/315/283
f 257/295/263 271/316/284 272/320/286
f 249/293/262 265/321/287 250/296/264
f 257/295/263 273/305/273 258/297/265
f 250/296/264 266/307/275 251/298/266
f 277/313/281 293/322/288 278/315/283
f 271/316/284 285/323/289 286/324/290
f 264/318/285 1/325/8 279/326/291
f 8/327/10 278/315/283 293/322/288
f 271/316/284 287/328/292 272/320/286
f 265/321/287 279/326/291 280/329/293
f 273/305/273 287/328/292 288/330/294
f 265/321/287 281/331/295 266/307/275
f 273/305/273 289/332/296 274/306/274
f 267/308/276 281/331/295 282/333/297
f 275/309/277 289/332/296 290/334/298
f 267/308/276 283/335/299 268/310/278
f 275/309/277 291/336/300 276/311/279
f 269/312/280 283/335/299 284/337/301
f 277/313/281 291/336/300 292/338/302
f 269/312/280 285/323/289 270/314/282
f 290/334/298 304/339/303 305/340/304
f 282/333/297 298/341/305 283/335/299
f 290/334/298 306/342/306 291/336/300
f 284/337/301 298/341/305 299/343/307
f 291/336/300 307/344/308 292/338/302
f 284/337/301 300/345/309 285/323/289
f 293/322/288 307/344/308 308/346/310
f 286/324/290 300/345/309 301/347/311
f 279/326/291 1/348/8 294/349/312
f 8/350/10 293/322/288 308/346/310
f 286/324/290 302/351/313 287/328/292
f 279/326/291 295/352/314 280/329/293
f 288/330/294 302/351/313 303/353/315
f 281/331/295 295/352/314 296/354/316
f 288/330/294 304/339/303 289/332/296
f 282/333/297 296/354/316 297/355/317
f 294/349/312 1/356/8 309/357/318
f 8/358/10 308/346/310 323/359/319
f 301/347/311 317/360/320 302/351/313
f 295/352/314 309/357/318 310/361/321
f 302/351/313 318/362/322 303/353/315
f 295/352/314 311/363/323 296/354/316
f 304/339/303 318/362/322 319/364/324
f 296/354/316 312/365/325 297/355/317
f 304/339/303 320/366/326 305/340/304
f 298/341/305 312/365/325 313/367/327
f 306/342/306 320/366/326 321/368/328
f 298/341/305 314/369/329 299/343/307
f 307/344/308 321/368/328 322/370/330
f 300/345/309 314/369/329 315/371/331
f 307/344/308 323/359/319 308/346/310
f 301/347/311 315/371/331 316/372/332
f 313/367/327 327/373/333 328/374/334
f 321/368/328 335/375/335 336/376/336
f 313/367/327 329/377/337 314/369/329
f 321/368/328 337/378/338 322/370/330
f 315/371/331 329/377/337 330/379/339
f 323/359/319 337/378/338 338/380/340
f 316/372/332 330/379/339 331/381/341
f 309/357/318 1/382/8 324/383/342
f 8/384/10 323/359/319 338/380/340
f 316/372/332 332/385/343 317/360/320
f 309/357/318 325/386/344 310/361/321
f 317/360/320 333/387/345 318/362/322
f 311/363/323 325/386/344 326/388/346
f 319/364/324 333/387/345 334/389/347
f 311/363/323 327/373/333 312/365/325
f 319/364/324 335/375/335 320/366/326
f 331/381/341 347/390/348 332/385/343
f 325/386/344 339/391/349 340/392/350
f 333/387/345 347/390/348 348/393/351
f 326/388/346 340/392/350 341/394/352
f 333/387/345 349/395/353 334/389/347
f 326/388/346 342/396/354 327/373/333
f 334/389/347 350/397/355 335/375/335
f 328/374/334 342/396/354 343/398/356
f 336/376/336 350/397/355 351/399/357
f 329/377/337 343/398/356 344/400/358
f 336/376/336 352/401/359 337/378/338
f 329/377/337 345/402/360 330/379/339
f 337/378/338 353/403/361 338/380/340
f 331/381/341 345/402/360 346/404/362
f 324/383/342 1/405/8 339/391/349
f 8/406/10 338/380/340 353/403/361
f 351/399/357 365/407/363 366/408/364
f 344/400/358 358/409/365 359/410/366
f 352/401/359 366/408/364 367/411/367
f 344/400/358 360/412/368 345/402/360
f 353/403/361 367/411/367 368/413/369
f 346/404/362 360/412/368 361/414/370
f 339/391/349 1/415/8 354/416/371
f 8/417/10 353/403/361 368/413/369
f 346/404/362 362/418/372 347/390/348
f 339/391/349 355/419/373 340/392/350
f 348/393/351 362/418/372 363/420/374
f 340/392/350 356/421/375 341/394/352
f 348/393/351 364/422/376 349/395/353
f 341/394/352 357/423/377 342/396/354
f 350/397/355 364/422/376 365/407/363
f 342/396/354 358/409/365 343/398/356
f 355/424/373 369/425/378 370/426/379
f 362/427/372 378/428/380 363/429/374
f 356/430/375 370/426/379 371/431/381
f 364/432/376 378/428/380 379/433/382
f 357/434/377 371/431/381 372/435/383
f 364/432/376 380/436/384 365/437/363
f 358/438/365 372/435/383 373/439/385
f 365/437/363 381/440/386 366/441/364
f 358/438/365 374/442/387 359/443/366
f 366/441/364 382/444/388 367/445/367
f 360/446/368 374/442/387 375/447/389
f 367/445/367 383/448/390 368/449/369
f 360/446/368 376/450/391 361/451/370
f 354/452/371 1/453/8 369/425/378
f 8/454/10 368/449/369 383/448/390
f 362/427/372 376/450/391 377/455/392
f 373/439/385 389/456/393 374/442/387
f 382/444/388 396/457/394 397/458/395
f 375/447/389 389/456/393 390/459/396
f 383/448/390 397/458/395 398/460/397
f 375/447/389 391/461/398 376/450/391
f 369/425/378 1/462/8 384/463/399
f 8/464/10 383/448/390 398/460/397
f 377/455/392 391/461/398 392/465/400
f 369/425/378 385/466/401 370/426/379
f 377/455/392 393/467/402 378/428/380
f 370/426/379 386/468/403 371/431/381
f 379/433/382 393/467/402 394/469/404
f 372/435/383 386/468/403 387/470/405
f 379/433/382 395/471/406 380/436/384
f 373/439/385 387/470/405 388/472/407
f 380/436/384 396/457/394 381/440/386
f 393/467/402 407/473/408 408/474/409
f 385/466/401 401/475/410 386/468/403
f 393/467/402 409/476/411 394/469/404
f 387/470/405 401/475/410 402/477/412
f 395/471/406 409/476/411 410/478/413
f 387/470/405 403/479/414 388/472/407
f 395/471/406 411/480/415 396/457/394
f 389/456/393 403/479/414 404/481/416
f 397/458/395 411/480/415 412/482/417
f 389/456/393 405/483/418 390/459/396
f 397/458/395 413/484/419 398/460/397
f 391/461/398 405/483/418 406/485/420
f 384/463/399 1/486/8 399/487/421
f 8/488/10 398/460/397 413/484/419
f 391/461/398 407/473/408 392/465/400
f 385/466/401 399/487/421 400/489/422
f 411/480/415 427/490/423 412/482/417
f 404/481/416 420/491/424 405/483/418
f 413/484/419 427/490/423 428/492/425
f 405/483/418 421/493/426 406/485/420
f 399/487/421 1/494/8 414/495/427
f 8/496/10 413/484/419 428/492/425
f 407/473/408 421/493/426 422/497/428
f 399/487/421 415/498/429 400/489/422
f 408/474/409 422/497/428 423/499/430
f 401/475/410 415/498/429 416/500/431
f 408/474/409 424/501/432 409/476/411
f 402/477/412 416/500/431 417/502/433
f 410/478/413 424/501/432 425/503/434
f 402/477/412 418/504/435 403/479/414
f 410/478/413 426/505/436 411/480/415
f 404/481/416 418/504/435 419/506/437
f 424/501/432 438/507/438 439/508/439
f 416/500/431 432/509/440 417/502/433
f 424/501/432 440/510/441 425/503/434
f 418/504/435 432/509/440 433/511/442
f 426/505/436 440/510/441 441/512/443
f 418/504/435 434/513/444 419/506/437
f 427/490/423 441/512/443 442/514/445
f 420/491/424 434/513/444 435/515/446
f 427/490/423 443/516/447 428/492/425
f 421/493/426 435/515/446 436/517/448
f 414/495/427 1/518/8 429/519/449
f 8/520/10 428/492/425 443/516/447
f 421/493/426 437/521/450 422/497/428
f 415/498/429 429/519/449 430/522/451
f 422/497/428 438/507/438 423/499/430
f 415/498/429 431/523/452 416/500/431
f 443/516/447 457/524/453 458/525/454
f 436/517/448 450/526/455 451/527/456
f 429/519/449 1/528/8 444/529/457
f 8/530/10 443/516/447 458/525/454
f 436/517/448 452/531/458 437/521/450
f 429/519/449 445/532/459 430/522/451
f 437/521/450 453/533/460 438/507/438
f 431/523/452 445/532/459 446/534/461
f 439/508/439 453/533/460 454/535/462
f 431/523/452 447/536/463 432/509/440
f 439/508/439 455/537/464 440/510/441
f 433/511/442 447/536/463 448/538/465
f 441/512/443 455/537/464 456/539/466
f 433/511/442 449/540/467 434/513/444
f 441/512/443 457/524/453 442/514/445
f 435/515/446 449/540/467 450/526/455
f 446/534/461 462/541/468 447/536/463
f 454/535/462 470/542/469 455/537/464
f 448/538/465 462/541/468 463/543/470
f 456/539/466 470/542/469 471/544/471
f 449/540/467 463/543/470 464/545/472
f 456/539/466 472/546/473 457/524/453
f 449/540/467 465/547/474 450/526/455
f 457/524/453 473/548/475 458/525/454
f 451/527/456 465/547/474 466/549/476
f 444/529/457 1/550/8 459/551/477
f 8/552/10 458/525/454 473/548/475
f 451/527/456 467/553/478 452/531/458
f 445/532/459 459/551/477 460/554/479
f 453/533/460 467/553/478 468/555/480
f 446/534/461 460/554/479 461/556/481
f 453/533/460 469/557/482 454/535/462
f 466/549/476 4/4/4 5/6/6
f 459/551/477 1/558/8 474/7/7
f 8/559/10 473/548/475 482/3/3
f 466/549/476 6/11/11 467/553/478
f 459/551/477 475/13/13 460/554/479
f 468/555/480 6/11/11 478/16/16
f 461/556/481 475/13/13 2/18/18
f 468/555/480 7/19/19 469/557/482
f 462/541/468 2/18/18 476/22/22
f 470/542/469 7/19/19 479/24/24
f 462/541/468 3/25/25 463/543/470
f 471/544/471 479/24/24 480/28/28
f 464/545/472 3/25/25 477/30/30
f 472/546/473 480/28/28 481/1/1
f 464/545/472 4/4/4 465/547/474
f 473/548/475 481/1/1 482/3/3
f 483/560/483 515/274/8 484/561/484
f 484/561/484 515/274/8 485/562/485
f 485/562/485 515/274/8 486/563/486
f 486/563/486 515/274/8 487/564/487
f 487/564/487 515/274/8 488/565/488
f 488/565/488 515/274/8 489/566/489
f 489/566/489 515/274/8 490/567/490
f 490/567/490 515/274/8 491/568/491
f 491/568/491 515/274/8 492/569/492
f 492/569/492 515/274/8 493/570/493
f 493/570/493 515/274/8 494/571/494
f 494/571/494 515/274/8 495/572/495
f 495/572/495 515/274/8 496/573/496
f 496/573/496 515/274/8 497/574/497
f 497/574/497 515/274/8 498/575/498
f 498/575/498 515/274/8 499/576/499
f 499/576/499 515/274/8 500/577/500
f 500/577/500 515/274/8 501/578/501
f 501/578/501 515/274/8 502/579/502
f 502/579/502 515/274/8 503/580/503
f 503/580/503 515/274/8 504/581/504
f 504/581/504 515/274/8 505/582/505
f 505/582/505 515/274/8 506/583/506
f 506/583/506 515/274/8 507/584/507
f 507/584/507 515/274/8 508/585/508
f 508/585/508 515/274/8 509/586/509
f 509/586/509 515/274/8 510/587/510
f 510/587/510 515/274/8 511/588/511
f 511/588/511 515/274/8 512/589/512
f 512/589/512 515/274/8 513/590/513
f 498/591/498 506/592/506 514/593/514
f 513/590/513 515/274/8 514/594/514
f 514/594/514 515/274/8 483/560/483
f 516/560/515 548/274/124 517/561/516
f 517/561/516 548/274/124 518/562/517
f 518/562/517 548/274/124 519/563/518
f 519/563/518 548/274/124 520/564/519
f 520/564/519 548/274/124 521/565/520
f 521/565/520 548/274/124 522/566/521
f 522/566/521 548/274/124 523/567/522
f 523/567/522 548/274/124 524/568/523
f 524/568/523 548/274/124 525/569/524
f 525/569/524 548/274/124 526/570/525
f 526/570/525 548/274/124 527/571/526
f 527/571/526 548/274/124 528/572/527
f 528/572/527 548/274/124 529/573/528
f 529/573/528 548/274/124 530/574/529
f 530/574/529 548/274/124 531/575/530
f 531/575/530 548/274/124 532/576/531
f 532/576/531 548/274/124 533/577/532
f 533/577/532 548/274/124 534/578/533
f 534/578/533 548/274/124 535/579/534
f 535/579/534 548/274/124 536/580/535
f 536/580/535 548/274/124 537/581/536
f 537/581/536 548/274/124 538/582/537
f 538/582/537 548/274/124 539/583/538
f 539/583/538 548/274/124 540/584/539
f 540/584/539 548/274/124 541/585/540
f 541/585/540 548/274/124 542/586/541
f 542/586/541 548/274/124 543/587/542
f 543/587/542 548/274/124 544/588/543
f 544/588/543 548/274/124 545/589/544
f 545/589/544 548/274/124 546/590/545
f 531/591/530 539/592/538 547/593/546
f 546/590/545 548/274/124 547/594/546
f 547/594/546 548/274/124 516/560/515
f 549/560/547 581/274/10 550/561/548
f 550/561/548 581/274/10 551/562/549
f 551/562/549 581/274/10 552/563/550
f 552/563/550 581/274/10 553/564/551
f 553/564/551 581/274/10 554/565/552
f 554/565/552 581/274/10 555/566/553
f 555/566/553 581/274/10 556/567/554
f 556/567/554 581/274/10 557/568/555
f 557/568/555 581/274/10 558/569/556
f 558/569/556 581/274/10 559/570/557
f 559/570/557 581/274/10 560/571/558
f 560/571/558 581/274/10 561/572/559
f 561/572/559 581/274/10 562/573/560
f 562/573/560 581/274/10 563/574/561
f 563/574/561 581/274/10 564/575/562
f 564/575/562 581/274/10 565/576/563
f 565/576/563 581/274/10 566/577/564
f 566/577/564 581/274/10 567/578/565
f 567/578/565 581/274/10 568/579/566
f 568/579/566 581/274/10 569/580/567
f 569/580/567 581/274/10 570/581/568
f 570/581/568 581/274/10 571/582/569
f 571/582/569 581/274/10 572/583/570
f 572/583/570 581/274/10 573/584/571
f 573/584/571 581/274/10 574/585/572
f 574/585/572 581/274/10 575/586/573
f 575/586/573 581/274/10 576/587/574
f 576/587/574 581/274/10 577/588/575
f 577/588/575 581/274/10 578/589/576
f 578/589/576 581/274/10 579/590/577
f 564/591/562 572/592/570 580/593/578
f 579/590/577 581/274/10 580/594/578
f 580/594/578 581/274/10 549/560/547
f 582/560/579 614/274/370 583/561/580
f 583/561/580 614/274/370 584/562/581
f 584/562/581 614/274/370 585/563/582
f 585/563/582 614/274/370 586/564/583
f 586/564/583 614/274/370 587/565/584
f 587/565/584 614/274/370 588/566/585
f 588/566/585 614/274/370 589/567/586
f 589/567/586 614/274/370 590/568/587
f 590/568/587 614/274/370 591/569/588
f 591/569/588 614/274/370 592/570/589
f 592/570/589 614/274/370 593/571/590
f 593/571/590 614/274/370 594/572/591
f 594/572/591 614/274/370 595/573/592
f 595/573/592 614/274/370 596/574/593
f 596/574/593 614/274/370 597/575/594
f 597/575/594 614/274/370 598/576/595
f 598/576/595 614/274/370 599/577/596
f 599/577/596 614/274/370 600/578/597
f 600/578/597 614/274/370 601/579/598
f 601/579/598 614/274/370 602/580/599
f 602/580/599 614/274/370 603/581/600
f 603/581/600 614/274/370 604/582/601
f 604/582/601 614/274/370 605/583/602
f 605/583/602 614/274/370 606/584/603
f 606/584/603 614/274/370 607/585/604
f 607/585/604 614/274/370 608/586/605
f 608/586/605 614/274/370 609/587/606
f 609/587/606 614/274/370 610/588/607
f 610/588/607 614/274/370 611/589/608
f 611/589/608 614/274/370 612/590/609
f 597/591/594 605/592/602 613/593/610
f 612/590/609 614/274/370 613/594/610
f 613/594/610 614/274/370 582/560/579
f 615/560/611 647/274/253 616/561/612
f 616/561/612 647/274/253 617/562/613
f 617/562/613 647/274/253 618/563/614
f 618/563/614 647/274/253 619/564/615
f 619/564/615 647/274/253 620/565/616
f 620/565/616 647/274/253 621/566/617
f 621/566/617 647/274/253 622/567/618
f 622/567/618 647/274/253 623/568/619
f 623/568/619 647/274/253 624/569/620
f 624/569/620 647/274/253 625/570/621
f 625/570/621 647/274/253 626/571/622
f 626/571/622 647/274/253 627/572/623
f 627/572/623 647/274/253 628/573/624
f 628/573/624 647/274/253 629/574/625
f 629/574/625 647/274/253 630/575/626
f 630/575/626 647/274/253 631/576/627
f 631/576/627 647/274/253 632/577/628
f 632/577/628 647/274/253 633/578/629
f 633/578/629 647/274/253 634/579/630
f 634/579/630 647/274/253 635/580/631
f 635/580/631 647/274/253 636/581/632
f 636/581/632 647/274/253 637/582/633
f 637/582/633 647/274/253 638/583/634
f 638/583/634 647/274/253 639/584/635
f 639/584/635 647/274/253 640/585/636
f 640/585/636 647/274/253 641/586/637
f 641/586/637 647/274/253 642/587/638
f 642/587/638 647/274/253 643/588/639
f 643/588/639 647/274/253 644/589/640
f 644/589/640 647/274/253 645/590/641
f 630/591/626 638/592/634 646/593/642
f 645/590/641 647/274/253 646/594/642
f 646/594/642 647/274/253 615/560/611
f 648/560/643 680/274/6 649/561/644
f 649/561/644 680/274/6 650/562/645
f 650/562/645 680/274/6 651/563/646
f 651/563/646 680/274/6 652/564/647
f 652/564/647 680/274/6 653/565/648
f 653/565/648 680/274/6 654/566/649
f 654/566/649 680/274/6 655/567/650
f 655/567/650 680/274/6 656/568/651
f 656/568/651 680/274/6 657/569/652
f 657/569/652 680/274/6 658/570/653
f 658/570/653 680/274/6 659/571/654
f 659/571/654 680/274/6 660/572/655
f 660/572/655 680/274/6 661/573/656
f 661/573/656 680/274/6 662/574/657
f 662/574/657 680/274/6 663/575/658
f 663/575/658 680/274/6 664/576/659
f 664/576/659 680/274/6 665/577/660
f 665/577/660 680/274/6 666/578/661
f 666/578/661 680/274/6 667/579/662
f 667/579/662 680/274/6 668/580/663
f 668/580/663 680/274/6 669/581/664
f 669/581/664 680/274/6 670/582/665
f 670/582/665 680/274/6 671/583/666
f 671/583/666 680/274/6 672/584/667
f 672/584/667 680/274/6 673/585/668
f 673/585/668 680/274/6 674/586/669
f 674/586/669 680/274/6 675/587/670
f 675/587/670 680/274/6 676/588/671
f 676/588/671 680/274/6 677/589/672
f 677/589/672 680/274/6 678/590/673
f 663/591/658 671/592/666 679/593/674
f 678/590/673 680/274/6 679/594/674
f 679/594/674 680/274/6 648/560/643
f 481/1/1 22/31/31 23/2/2
f 4/4/4 15/32/32 16/5/5
f 6/11/11 5/6/6 16/5/5
f 475/13/13 474/7/7 9/9/9
f 6/11/11 17/12/12 18/15/15
f 475/13/13 10/14/14 11/17/17
f 7/19/19 478/16/16 18/15/15
f 2/18/18 11/17/17 12/21/21
f 7/19/19 19/20/20 20/23/23
f 3/25/25 476/22/22 12/21/21
f 479/24/24 20/23/23 21/27/27
f 3/25/25 13/26/26 14/29/29
f 480/28/28 21/27/27 22/31/31
f 4/4/4 477/30/30 14/29/29
f 22/31/31 21/27/27 36/33/33
f 15/32/32 14/29/29 29/35/35
f 23/2/2 22/31/31 37/34/34
f 15/32/32 30/36/36 31/38/38
f 17/12/12 16/5/5 31/38/38
f 9/9/9 24/40/39 25/43/41
f 17/12/12 32/42/40 33/44/42
f 10/14/14 25/43/41 26/45/43
f 19/20/20 18/15/15 33/44/42
f 12/21/21 11/17/17 26/45/43
f 19/20/20 34/46/44 35/48/46
f 13/26/26 12/21/21 27/47/45
f 20/23/23 35/48/46 36/33/33
f 13/26/26 28/49/47 29/35/35
f 25/43/41 40/66/62 41/50/48
f 34/46/44 33/44/42 48/51/49
f 27/47/45 26/45/43 41/50/48
f 35/48/46 34/46/44 49/52/50
f 27/47/45 42/53/51 43/55/53
f 35/48/46 50/54/52 51/56/54
f 28/49/47 43/55/53 44/57/55
f 37/34/34 36/33/33 51/56/54
f 30/36/36 29/35/35 44/57/55
f 37/34/34 52/58/56 53/60/58
f 31/38/38 30/36/36 45/59/57
f 31/38/38 46/61/59 47/65/61
f 25/43/41 24/40/39 39/63/60
f 32/42/40 47/65/61 48/51/49
f 44/57/55 59/83/77 60/67/63
f 53/60/58 52/58/56 67/68/64
f 46/61/59 45/59/57 60/67/63
f 46/61/59 61/70/66 62/74/68
f 39/63/60 54/72/67 55/75/69
f 48/51/49 47/65/61 62/74/68
f 41/50/48 40/66/62 55/75/69
f 48/51/49 63/76/70 64/78/72
f 42/53/51 41/50/48 56/77/71
f 50/54/52 49/52/50 64/78/72
f 42/53/51 57/79/73 58/81/75
f 50/54/52 65/80/74 66/82/76
f 44/57/55 43/55/53 58/81/75
f 51/56/54 66/82/76 67/68/64
f 64/78/72 63/76/70 78/84/78
f 56/77/71 71/100/92 72/86/80
f 64/78/72 79/85/79 80/87/81
f 58/81/75 57/79/73 72/86/80
f 66/82/76 65/80/74 80/87/81
f 58/81/75 73/88/82 74/90/84
f 67/68/64 66/82/76 81/89/83
f 60/67/63 59/83/77 74/90/84
f 67/68/64 82/91/85 83/93/87
f 61/70/66 60/67/63 75/92/86
f 61/70/66 76/94/88 77/98/90
f 55/75/69 54/72/67 69/96/89
f 62/74/68 77/98/90 78/84/78
f 55/75/69 70/99/91 71/100/92
f 83/93/87 82/91/85 97/101/93
f 76/94/88 75/92/86 90/103/95
f 76/94/88 91/104/96 92/108/98
f 69/96/89 84/106/97 85/109/99
f 78/84/78 77/98/90 92/108/98
f 71/100/92 70/99/91 85/109/99
f 79/85/79 78/84/78 93/110/100
f 71/100/92 86/111/101 87/113/103
f 79/85/79 94/112/102 95/114/104
f 73/88/82 72/86/80 87/113/103
f 81/89/83 80/87/81 95/114/104
f 73/88/82 88/115/105 89/117/107
f 81/89/83 96/116/106 97/101/93
f 74/90/84 89/117/107 90/103/95
f 86/111/101 101/133/121 102/118/108
f 94/112/102 109/134/122 110/119/109
f 88/115/105 87/113/103 102/118/108
f 96/116/106 95/114/104 110/119/109
f 89/117/107 88/115/105 103/120/110
f 96/116/106 111/121/111 112/123/113
f 89/117/107 104/122/112 105/124/114
f 97/101/93 112/123/113 113/125/115
f 91/104/96 90/103/95 105/124/114
f 91/104/96 106/126/116 107/130/118
f 85/109/99 84/106/97 99/128/117
f 93/110/100 92/108/98 107/130/118
f 86/111/101 85/109/99 100/131/119
f 93/110/100 108/132/120 109/134/122
f 106/126/116 105/124/114 120/135/123
f 106/126/116 121/136/124 122/141/127
f 99/128/117 114/138/125 115/142/128
f 108/132/120 107/130/118 122/141/127
f 101/133/121 100/131/119 115/142/128
f 108/132/120 123/143/129 124/145/131
f 102/118/108 101/133/121 116/144/130
f 110/119/109 109/134/122 124/145/131
f 102/118/108 117/146/132 118/148/134
f 110/119/109 125/147/133 126/149/135
f 104/122/112 103/120/110 118/148/134
f 111/121/111 126/149/135 127/151/137
f 104/122/112 119/150/136 120/135/123
f 113/125/115 112/123/113 127/151/137
f 124/145/131 139/168/152 140/152/138
f 118/148/134 117/146/132 132/153/139
f 126/149/135 125/147/133 140/152/138
f 118/148/134 133/154/140 134/156/142
f 127/151/137 126/149/135 141/155/141
f 120/135/123 119/150/136 134/156/142
f 127/151/137 142/157/143 143/159/145
f 120/135/123 135/158/144 136/160/146
f 122/141/127 121/136/124 136/160/146
f 115/142/128 114/138/125 129/162/147
f 122/141/127 137/164/148 138/166/150
f 115/142/128 130/165/149 131/167/151
f 124/145/131 123/143/129 138/166/150
f 116/144/130 131/167/151 132/153/139
f 137/164/148 136/160/146 151/171/154
f 129/162/147 144/185/167 145/173/156
f 137/164/148 152/172/155 153/174/157
f 130/165/149 145/173/156 146/175/158
f 139/168/152 138/166/150 153/174/157
f 132/153/139 131/167/151 146/175/158
f 139/168/152 154/176/159 155/178/161
f 133/154/140 132/153/139 147/177/160
f 140/152/138 155/178/161 156/180/163
f 133/154/140 148/179/162 149/181/164
f 142/157/143 141/155/141 156/180/163
f 135/158/144 134/156/142 149/181/164
f 143/159/145 142/157/143 157/182/165
f 135/158/144 150/183/166 151/171/154
f 155/178/161 170/201/181 171/186/168
f 148/179/162 163/202/182 164/187/169
f 157/182/165 156/180/163 171/186/168
f 150/183/166 149/181/164 164/187/169
f 157/182/165 172/188/170 173/190/172
f 151/171/154 150/183/166 165/189/171
f 151/171/154 166/191/173 167/195/175
f 145/173/156 144/185/167 159/193/174
f 152/172/155 167/195/175 168/197/177
f 145/173/156 160/196/176 161/198/178
f 154/176/159 153/174/157 168/197/177
f 147/177/160 146/175/158 161/198/178
f 155/178/161 154/176/159 169/199/179
f 147/177/160 162/200/180 163/202/182
f 159/193/174 174/218/197 175/203/183
f 168/197/177 167/195/175 182/204/184
f 161/198/178 160/196/176 175/203/183
f 168/197/177 183/205/185 184/207/187
f 162/200/180 161/198/178 176/206/186
f 170/201/181 169/199/179 184/207/187
f 162/200/180 177/208/188 178/210/190
f 170/201/181 185/209/189 186/211/191
f 164/187/169 163/202/182 178/210/190
f 171/186/168 186/211/191 187/213/193
f 164/187/169 179/212/192 180/214/194
f 173/190/172 172/188/170 187/213/193
f 166/191/173 165/189/171 180/214/194
f 166/191/173 181/216/196 182/204/184
f 178/210/190 193/236/212 194/220/198
f 187/213/193 186/211/191 201/221/199
f 180/214/194 179/212/192 194/220/198
f 187/213/193 202/222/200 203/224/202
f 181/216/196 180/214/194 195/223/201
f 181/216/196 196/225/203 197/229/205
f 175/203/183 174/218/197 189/227/204
f 182/204/184 197/229/205 198/231/207
f 175/203/183 190/230/206 191/232/208
f 184/207/187 183/205/185 198/231/207
f 176/206/186 191/232/208 192/234/210
f 184/207/187 199/233/209 200/235/211
f 178/210/190 177/208/188 192/234/210
f 186/211/191 185/209/189 200/235/211
f 197/229/205 212/253/227 213/237/213
f 191/232/208 190/230/206 205/238/214
f 199/233/209 198/231/207 213/237/213
f 191/232/208 206/239/215 207/241/217
f 199/233/209 214/240/216 215/242/218
f 193/236/212 192/234/210 207/241/217
f 201/221/199 200/235/211 215/242/218
f 193/236/212 208/243/219 209/245/221
f 201/221/199 216/244/220 217/246/222
f 195/223/201 194/220/198 209/245/221
f 203/224/202 202/222/200 217/246/222
f 196/225/203 195/223/201 210/247/223
f 196/225/203 211/249/225 212/253/227
f 189/227/204 204/251/226 205/238/214
f 216/244/220 231/269/241 232/254/228
f 209/245/221 224/270/242 225/255/229
f 217/246/222 232/254/228 233/256/230
f 211/249/225 210/247/223 225/255/229
f 211/249/225 226/257/231 227/261/233
f 205/238/214 204/251/226 219/259/232
f 213/237/213 212/253/227 227/261/233
f 206/239/215 205/238/214 220/262/234
f 213/237/213 228/263/235 229/265/237
f 206/239/215 221/264/236 222/266/238
f 214/240/216 229/265/237 230/267/239
f 208/243/219 207/241/217 222/266/238
f 216/244/220 215/242/218 230/267/239
f 209/245/221 208/243/219 223/268/240
f 220/262/234 235/286/256 236/271/243
f 228/263/235 243/287/257 244/272/244
f 221/264/236 236/271/243 237/273/245
f 230/267/239 229/265/237 244/272/244
f 222/266/238 237/273/245 238/275/247
f 231/269/241 230/267/239 245/274/246
f 224/270/242 223/268/240 238/275/247
f 232/254/228 231/269/241 246/276/248
f 224/270/242 239/277/249 240/279/251
f 233/256/230 232/254/228 247/278/250
f 226/257/231 225/255/229 240/279/251
f 226/257/231 241/281/253 242/285/255
f 219/259/232 234/283/254 235/286/256
f 228/263/235 227/261/233 242/285/255
f 240/279/251 239/277/249 254/288/258
f 247/278/250 262/304/272 263/290/260
f 240/279/251 255/289/259 256/291/261
f 242/285/255 241/281/253 256/291/261
f 235/286/256 234/283/254 249/293/262
f 242/285/255 257/295/263 258/297/265
f 236/271/243 235/286/256 250/296/264
f 244/272/244 243/287/257 258/297/265
f 237/273/245 236/271/243 251/298/266
f 244/272/244 259/299/267 260/301/269
f 238/275/247 237/273/245 252/300/268
f 245/274/246 260/301/269 261/303/271
f 238/275/247 253/302/270 254/288/258
f 246/276/248 261/303/271 262/304/272
f 259/299/267 258/297/265 273/305/273
f 252/300/268 251/298/266 266/307/275
f 259/299/267 274/306/274 275/309/277
f 253/302/270 252/300/268 267/308/276
f 260/301/269 275/309/277 276/311/279
f 253/302/270 268/310/278 269/312/280
f 262/304/272 261/303/271 276/311/279
f 255/289/259 254/288/258 269/312/280
f 263/290/260 262/304/272 277/313/281
f 255/289/259 270/314/282 271/316/284
f 257/295/263 256/291/261 271/316/284
f 249/293/262 264/318/285 265/321/287
f 257/295/263 272/320/286 273/305/273
f 250/296/264 265/321/287 266/307/275
f 277/313/281 292/338/302 293/322/288
f 271/316/284 270/314/282 285/323/289
f 271/316/284 286/324/290 287/328/292
f 265/321/287 264/318/285 279/326/291
f 273/305/273 272/320/286 287/328/292
f 265/321/287 280/329/293 281/331/295
f 273/305/273 288/330/294 289/332/296
f 267/308/276 266/307/275 281/331/295
f 275/309/277 274/306/274 289/332/296
f 267/308/276 282/333/297 283/335/299
f 275/309/277 290/334/298 291/336/300
f 269/312/280 268/310/278 283/335/299
f 277/313/281 276/311/279 291/336/300
f 269/312/280 284/337/301 285/323/289
f 290/334/298 289/332/296 304/339/303
f 282/333/297 297/355/317 298/341/305
f 290/334/298 305/340/304 306/342/306
f 284/337/301 283/335/299 298/341/305
f 291/336/300 306/342/306 307/344/308
f 284/337/301 299/343/307 300/345/309
f 293/322/288 292/338/302 307/344/308
f 286/324/290 285/323/289 300/345/309
f 286/324/290 301/347/311 302/351/313
f 279/326/291 294/349/312 295/352/314
f 288/330/294 287/328/292 302/351/313
f 281/331/295 280/329/293 295/352/314
f 288/330/294 303/353/315 304/339/303
f 282/333/297 281/331/295 296/354/316
f 301/347/311 316/372/332 317/360/320
f 295/352/314 294/349/312 309/357/318
f 302/351/313 317/360/320 318/362/322
f 295/352/314 310/361/321 311/363/323
f 304/339/303 303/353/315 318/362/322
f 296/354/316 311/363/323 312/365/325
f 304/339/303 319/364/324 320/366/326
f 298/341/305 297/355/317 312/365/325
f 306/342/306 305/340/304 320/366/326
f 298/341/305 313/367/327 314/369/329
f 307/344/308 306/342/306 321/368/328
f 300/345/309 299/343/307 314/369/329
f 307/344/308 322/370/330 323/359/319
f 301/347/311 300/345/309 315/371/331
f 313/367/327 312/365/325 327/373/333
f 321/368/328 320/366/326 335/375/335
f 313/367/327 328/374/334 329/377/337
f 321/368/328 336/376/336 337/378/338
f 315/371/331 314/369/329 329/377/337
f 323/359/319 322/370/330 337/378/338
f 316/372/332 315/371/331 330/379/339
f 316/372/332 331/381/341 332/385/343
f 309/357/318 324/383/342 325/386/344
f 317/360/320 332/385/343 333/387/345
f 311/363/323 310/361/321 325/386/344
f 319/364/324 318/362/322 333/387/345
f 311/363/323 326/388/346 327/373/333
f 319/364/324 334/389/347 335/375/335
f 331/381/341 346/404/362 347/390/348
f 325/386/344 324/383/342 339/391/349
f 333/387/345 332/385/343 347/390/348
f 326/388/346 325/386/344 340/392/350
f 333/387/345 348/393/351 349/395/353
f 326/388/346 341/394/352 342/396/354
f 334/389/347 349/395/353 350/397/355
f 328/374/334 327/373/333 342/396/354
f 336/376/336 335/375/335 350/397/355
f 329/377/337 328/374/334 343/398/356
f 336/376/336 351/399/357 352/401/359
f 329/377/337 344/400/358 345/402/360
f 337/378/338 352/401/359 353/403/361
f 331/381/341 330/379/339 345/402/360
f 351/399/357 350/397/355 365/407/363
f 344/400/358 343/398/356 358/409/365
f 352/401/359 351/399/357 366/408/364
f 344/400/358 359/410/366 360/412/368
f 353/403/361 352/401/359 367/411/367
f 346/404/362 345/402/360 360/412/368
f 346/404/362 361/414/370 362/418/372
f 339/391/349 354/416/371 355/419/373
f 348/393/351 347/390/348 362/418/372
f 340/392/350 355/419/373 356/421/375
f 348/393/351 363/420/374 364/422/376
f 341/394/352 356/421/375 357/423/377
f 350/397/355 349/395/353 364/422/376
f 342/396/354 357/423/377 358/409/365
f 355/424/373 354/452/371 369/425/378
f 362/427/372 377/455/392 378/428/380
f 356/430/375 355/424/373 370/426/379
f 364/432/376 363/429/374 378/428/380
f 357/434/377 356/430/375 371/431/381
f 364/432/376 379/433/382 380/436/384
f 358/438/365 357/434/377 372/435/383
f 365/437/363 380/436/384 381/440/386
f 358/438/365 373/439/385 374/442/387
f 366/441/364 381/440/386 382/444/388
f 360/446/368 359/443/366 374/442/387
f 367/445/367 382/444/388 383/448/390
f 360/446/368 375/447/389 376/450/391
f 362/427/372 361/451/370 376/450/391
f 373/439/385 388/472/407 389/456/393
f 382/444/388 381/440/386 396/457/394
f 375/447/389 374/442/387 389/456/393
f 383/448/390 382/444/388 397/458/395
f 375/447/389 390/459/396 391/461/398
f 377/455/392 376/450/391 391/461/398
f 369/425/378 384/463/399 385/466/401
f 377/455/392 392/465/400 393/467/402
f 370/426/379 385/466/401 386/468/403
f 379/433/382 378/428/380 393/467/402
f 372/435/383 371/431/381 386/468/403
f 379/433/382 394/469/404 395/471/406
f 373/439/385 372/435/383 387/470/405
f 380/436/384 395/471/406 396/457/394
f 393/467/402 392/465/400 407/473/408
f 385/466/401 400/489/422 401/475/410
f 393/467/402 408/474/409 409/476/411
f 387/470/405 386/468/403 401/475/410
f 395/471/406 394/469/404 409/476/411
f 387/470/405 402/477/412 403/479/414
f 395/471/406 410/478/413 411/480/415
f 389/456/393 388/472/407 403/479/414
f 397/458/395 396/457/394 411/480/415
f 389/456/393 404/481/416 405/483/418
f 397/458/395 412/482/417 413/484/419
f 391/461/398 390/459/396 405/483/418
f 391/461/398 406/485/420 407/473/408
f 385/466/401 384/463/399 399/487/421
f 411/480/415 426/505/436 427/490/423
f 404/481/416 419/506/437 420/491/424
f 413/484/419 412/482/417 427/490/423
f 405/483/418 420/491/424 421/493/426
f 407/473/408 406/485/420 421/493/426
f 399/487/421 414/495/427 415/498/429
f 408/474/409 407/473/408 422/497/428
f 401/475/410 400/489/422 415/498/429
f 408/474/409 423/499/430 424/501/432
f 402/477/412 401/475/410 416/500/431
f 410/478/413 409/476/411 424/501/432
f 402/477/412 417/502/433 418/504/435
f 410/478/413 425/503/434 426/505/436
f 404/481/416 403/479/414 418/504/435
f 424/501/432 423/499/430 438/507/438
f 416/500/431 431/523/452 432/509/440
f 424/501/432 439/508/439 440/510/441
f 418/504/435 417/502/433 432/509/440
f 426/505/436 425/503/434 440/510/441
f 418/504/435 433/511/442 434/513/444
f 427/490/423 426/505/436 441/512/443
f 420/491/424 419/506/437 434/513/444
f 427/490/423 442/514/445 443/516/447
f 421/493/426 420/491/424 435/515/446
f 421/493/426 436/517/448 437/521/450
f 415/498/429 414/495/427 429/519/449
f 422/497/428 437/521/450 438/507/438
f 415/498/429 430/522/451 431/523/452
f 443/516/447 442/514/445 457/524/453
f 436/517/448 435/515/446 450/526/455
f 436/517/448 451/527/456 452/531/458
f 429/519/449 444/529/457 445/532/459
f 437/521/450 452/531/458 453/533/460
f 431/523/452 430/522/451 445/532/459
f 439/508/439 438/507/438 453/533/460
f 431/523/452 446/534/461 447/536/463
f 439/508/439 454/535/462 455/537/464
f 433/511/442 432/509/440 447/536/463
f 441/512/443 440/510/441 455/537/464
f 433/511/442 448/538/465 449/540/467
f 441/512/443 456/539/466 457/524/453
f 435/515/446 434/513/444 449/540/467
f 446/534/461 461/556/481 462/541/468
f 454/535/462 469/557/482 470/542/469
f 448/538/465 447/536/463 462/541/468
f 456/539/466 455/537/464 470/542/469
f 449/540/467 448/538/465 463/543/470
f 456/539/466 471/544/471 472/546/473
f 449/540/467 464/545/472 465/547/474
f 457/524/453 472/546/473 473/548/475
f 451/527/456 450/526/455 465/547/474
f 451/527/456 466/549/476 467/553/478
f 445/532/459 444/529/457 459/551/477
f 453/533/460 452/531/458 467/553/478
f 446/534/461 445/532/459 460/554/479
f 453/533/460 468/555/480 469/557/482
f 466/549/476 465/547/474 4/4/4
f 466/549/476 5/6/6 6/11/11
f 459/551/477 474/7/7 475/13/13
f 468/555/480 467/553/478 6/11/11
f 461/556/481 460/554/479 475/13/13
f 468/555/480 478/16/16 7/19/19
f 462/541/468 461/556/481 2/18/18
f 470/542/469 469/557/482 7/19/19
f 462/541/468 476/22/22 3/25/25
f 471/544/471 470/542/469 479/24/24
f 464/545/472 463/543/470 3/25/25
f 472/546/473 471/544/471 480/28/28
f 464/545/472 477/30/30 4/4/4
f 473/548/475 472/546/473 481/1/1
f 514/593/514 483/595/483 486/596/486
f 483/595/483 484/597/484 486/596/486
f 484/597/484 485/598/485 486/596/486
f 486/596/486 487/599/487 490/600/490
f 487/599/487 488/601/488 490/600/490
f 488/601/488 489/602/489 490/600/490
f 490/600/490 491/603/491 494/604/494
f 491/603/491 492/605/492 494/604/494
f 492/605/492 493/606/493 494/604/494
f 494/604/494 495/607/495 498/591/498
f 495/607/495 496/608/496 498/591/498
f 496/608/496 497/609/497 498/591/498
f 498/591/498 499/610/499 502/611/502
f 499/610/499 500/612/500 502/611/502
f 500/612/500 501/613/501 502/611/502
f 502/611/502 503/614/503 506/592/506
f 503/614/503 504/615/504 506/592/506
f 504/615/504 505/616/505 506/592/506
f 506/592/506 507/617/507 510/618/510
f 507/617/507 508/619/508 510/618/510
f 508/619/508 509/620/509 510/618/510
f 510/618/510 511/621/511 514/593/514
f 511/621/511 512/622/512 514/593/514
f 512/622/512 513/623/513 514/593/514
f 514/593/514 486/596/486 490/600/490
f 490/600/490 494/604/494 498/591/498
f 498/591/498 502/611/502 506/592/506
f 506/592/506 510/618/510 514/593/514
f 514/593/514 490/600/490 498/591/498
f 547/593/546 516/595/515 519/596/518
f 516/595/515 517/597/516 519/596/518
f 517/597/516 518/598/517 519/596/518
f 519/596/518 520/599/519 523/600/522
f 520/599/519 521/601/520 523/600/522
f 521/601/520 522/602/521 523/600/522
f 523/600/522 524/603/523 527/604/526
f 524/603/523 525/605/524 527/604/526
f 525/605/524 526/606/525 527/604/526
f 527/604/526 528/607/527 531/591/530
f 528/607/527 529/608/528 531/591/530
f 529/608/528 530/609/529 531/591/530
f 531/591/530 532/610/531 535/611/534
f 532/610/531 533/612/532 535/611/534
f 533/612/532 534/613/533 535/611/534
f 535/611/534 536/614/535 539/592/538
f 536/614/535 537/615/536 539/592/538
f 537/615/536 538/616/537 539/592/538
f 539/592/538 540/617/539 543/618/542
f 540/617/539 541/619/540 543/618/542
f 541/619/540 542/620/541 543/618/542
f 543/618/542 544/621/543 547/593/546
f 544/621/543 545/622/544 547/593/546
f 545/622/544 546/623/545 547/593/546
f 547/593/546 519/596/518 523/600/522
f 523/600/522 527/604/526 531/591/530
f 531/591/530 535/611/534 539/592/538
f 539/592/538 543/618/542 547/593/546
f 547/593/546 523/600/522 531/591/530
f 580/593/578 549/595/547 552/596/550
f 549/595/547 550/597/548 552/596/550
f 550/597/548 551/598/549 552/596/550
f 552/596/550 553/599/551 556/600/554
f 553/599/551 554/601/552 556/600/554
f 554/601/552 555/602/553 556/600/554
f 556/600/554 557/603/555 560/604/558
f 557/603/555 558/605/556 560/604/558
f 558/605/556 559/606/557 560/604/558
f 560/604/558 561/607/559 564/591/562
f 561/607/559 562/608/560 564/591/562
f 562/608/560 563/609/561 564/591/562
f 564/591/562 565/610/563 568/611/566
f 565/610/563 566/612/564 568/611/566
f 566/612/564 567/613/565 568/611/566
f 568/611/566 569/614/567 572/592/570
f 569/614/567 570/615/568 572/592/570
f 570/615/568 571/616/569 572/592/570
f 572/592/570 573/617/571 576/618/574
f 573/617/571 574/619/572 576/618/574
f 574/619/572 575/620/573 576/618/574
f 576/618/574 577/621/575 580/593/578
f 577/621/575 578/622/576 580/593/578
f 578/622/576 579/623/577 580/593/578
f 580/593/578 552/596/550 556/600/554
f 556/600/554 560/604/558 564/591/562
f 564/591/562 568/611/566 572/592/570
f 572/592/570 576/618/574 580/593/578
f 580/593/578 556/600/554 564/591/562
f 613/593/610 582/595/579 585/596/582
f 582/595/579 583/597/580 585/596/582
f 583/597/580 584/598/581 585/596/582
f 585/596/582 586/599/583 589/600/586
f 586/599/583 587/601/584 589/600/586
f 587/601/584 588/602/585 589/600/586
f 589/600/586 590/603/587 593/604/590
f 590/603/587 591/605/588 593/604/590
f 591/605/588 592/606/589 593/604/590
f 593/604/590 594/607/591 597/591/594
f 594/607/591 595/608/592 597/591/594
f 595/608/592 596/609/593 597/591/594
f 597/591/594 598/610/595 601/611/598
f 598/610/595 599/612/596 601/611/598
f 599/612/596 600/613/597 601/611/598
f 601/611/598 602/614/599 605/592/602
f 602/614/599 603/615/600 605/592/602
f 603/615/600 604/616/601 605/592/602
f 605/592/602 606/617/603 609/618/606
f 606/617/603 607/619/604 609/618/606
f 607/619/604 608/620/605 609/618/606
f 609/618/606 610/621/607 613/593/610
f 610/621/607 611/622/608 613/593/610
f 611/622/608 612/623/609 613/593/610
f 613/593/610 585/596/582 589/600/586
f 589/600/586 593/604/590 597/591/594
f 597/591/594 601/611/598 605/592/602
f 605/592/602 609/618/606 613/593/610
f 613/593/610 589/600/586 597/591/594
f 646/593/642 615/595/611 618/596/614
f 615/595/611 616/597/612 618/596/614
f 616/597/612 617/598/613 618/596/614
f 618/596/614 619/599/615 622/600/618
f 619/599/615 620/601/616 622/600/618
f 620/601/616 621/602/617 622/600/618
f 622/600/618 623/603/619 626/604/622
f 623/603/619 624/605/620 626/604/622
f 624/605/620 625/606/621 626/604/622
f 626/604/622 627/607/623 630/591/626
f 627/607/623 628/608/624 630/591/626
f 628/608/624 629/609/625 630/591/626
f 630/591/626 631/610/627 634/611/630
f 631/610/627 632/612/628 634/611/630
f 632/612/628 633/613/629 634/611/630
f 634/611/630 635/614/631 638/592/634
f 635/614/631 636/615/632 638/592/634
f 636/615/632 637/616/633 638/592/634
f 638/592/634 639/617/635 642/618/638
f 639/617/635 640/619/636 642/618/638
f 640/619/636 641/620/637 642/618/638
f 642/618/638 643/621/639 646/593/642
f 643/621/639 644/622/640 646/593/642
f 644/622/640 645/623/641 646/593/642
f 646/593/642 618/596/614 622/600/618
f 622/600/618 626/604/622 630/591/626
f 630/591/626 634/611/630 638/592/634
f 638/592/634 642/618/638 646/593/642
f 646/593/642 622/600/618 630/591/626
f 679/593/674 648/595/643 651/596/646
f 648/595/643 649/597/644 651/596/646
f 649/597/644 650/598/645 651/596/646
f 651/596/646 652/599/647 655/600/650
f 652/599/647 653/601/648 655/600/650
f 653/601/648 654/602/649 655/600/650
f 655/600/650 656/603/651 659/604/654
f 656/603/651 657/605/652 659/604/654
f 657/605/652 658/606/653 659/604/654
f 659/604/654 660/607/655 663/591/658
f 660/607/655 661/608/656 663/591/658
f 661/608/656 662/609/657 663/591/658
f 663/591/658 664/610/659 667/611/662
f 664/610/659 665/612/660 667/611/662
f 665/612/660 666/613/661 667/611/662
f 667/611/662 668/614/663 671/592/666
f 668/614/663 669/615/664 671/592/666
f 669/615/664 670/616/665 671/592/666
f 671/592/666 672/617/667 675/618/670
f 672/617/667 673/619/668 675/618/670
f 673/619/668 674/620/669 675/618/670
f 675/618/670 676/621/671 679/593/674
f 676/621/671 677/622/672 679/593/674
f 677/622/672 678/623/673 679/593/674
f 679/593/674 651/596/646 655/600/650
f 655/600/650 659/604/654 663/591/658
f 663/591/658 667/611/662 671/592/666
f 671/592/666 675/618/670 679/593/674
f 679/593/674 655/600/650 663/591/658
